<svg width="24" height="24" viewBox="0 0 24 24" fill="none" xmlns="http://www.w3.org/2000/svg">
<g id="airplane_ticket_black_24dp">
<path id="Shape" fill-rule="evenodd" clip-rule="evenodd" d="M4.8 5H19.371C20.271 5 21 5.81 21 6.8V17.6C21 18.59 20.19 19.4 19.2 19.4H4.8C3.81 19.4 3 18.59 3 17.6V14C3.999 14 4.8 13.19 4.8 12.2C4.8 11.21 3.999 10.4 3.009 10.4V6.8C3.009 5.81 3.81 5 4.8 5ZM9.18345 15.4942L17.1575 13.3703C17.6255 13.2353 17.8955 12.7582 17.7785 12.2992C17.6525 11.8403 17.1755 11.5612 16.7165 11.6873L14.5205 12.2723L10.9115 8.90625L9.65145 9.24825L11.8115 12.9922L9.66045 13.5683L8.52645 12.6772L7.68945 12.9023L9.18345 15.4942Z" fill="#F52800"/>
</g>
</svg>
