<svg width="24" height="24" viewBox="0 0 24 24" fill="none" xmlns="http://www.w3.org/2000/svg">
<g id="Luggage Copy">
<path id="Shape" fill-rule="evenodd" clip-rule="evenodd" d="M17 6H15V3C15 2.45 14.55 2 14 2H10C9.45 2 9 2.45 9 3V6H7C5.9 6 5 6.9 5 8V19C5 20.1 5.9 21 7 21C7 21.55 7.45 22 8 22C8.55 22 9 21.55 9 21H15C15 21.55 15.45 22 16 22C16.55 22 17 21.55 17 21C18.1 21 19 20.1 19 19V8C19 6.9 18.1 6 17 6ZM9.5 18H8V9H9.5V18ZM11.25 18H12.75V9H11.25V18ZM13.5 6H10.5V3.5H13.5V6ZM14.5 18H16V9H14.5V18Z" fill="#F52800"/>
</g>
</svg>
