<svg width="24" height="24" viewBox="0 0 24 24" fill="none" xmlns="http://www.w3.org/2000/svg">
<path fill-rule="evenodd" clip-rule="evenodd" d="M23 20.625V13.875C23 12.8288 22.36 11.9569 21.5 11.7038V10.5H20V11.625H18V10.5H16.5V11.7038C15.64 11.9569 15 12.8288 15 13.875V20.625C15 21.2437 15.45 21.75 16 21.75H22C22.55 21.75 23 21.2437 23 20.625ZM16.5 16.4375V15.5H21.5V17.375H20.8056V16.4375H16.5Z" fill="#F52800"/>
<path fill-rule="evenodd" clip-rule="evenodd" d="M11.9891 11.8544H9.99003V3.98182C9.99003 3.44182 9.54023 3 8.99047 3H4.99227C4.44252 3 3.99272 3.44182 3.99272 3.98182V11.8544H1.99362C0.986812 11.8544 0.993207 12.5953 1.00144 13.5495C1.0022 13.6373 1.00297 13.727 1.00297 13.818V19.6909C1.00297 19.782 1.0022 19.8716 1.00144 19.9595C0.993207 20.9136 0.986812 21.6545 1.99362 21.6545C1.99362 22.1945 2.44341 22.6364 2.99317 22.6364C3.54292 22.6364 3.99272 22.1945 3.99272 21.6545H9.99003C9.99003 22.1945 10.4398 22.6364 10.9896 22.6364C11.5393 22.6364 11.9891 22.1945 11.9891 21.6545C13.0097 21.6545 13.005 20.8932 12.9991 19.9203C12.9987 19.845 12.9982 19.7685 12.9982 19.6909V13.818C12.9982 13.7405 12.9987 13.664 12.9991 13.5887C13.005 12.6157 13.0097 11.8544 11.9891 11.8544ZM4.27246 19.3637H5.36337V13.9092H4.27246V19.3637ZM8.63574 19.3637H9.72665V13.9092H8.63574V19.3637ZM5.36328 11.7272H8.63601V4.09082H5.36328V11.7272Z" fill="#F52800"/>
</svg>
