<svg xmlns="http://www.w3.org/2000/svg" xmlns:xlink="http://www.w3.org/1999/xlink" width="24" height="24" viewBox="0 0 24 24">
  <defs>
    <clipPath id="clip-Recommended_MOB">
      <rect width="24" height="24"/>
    </clipPath>
  </defs>
  <g id="Recommended_MOB" clip-path="url(#clip-Recommended_MOB)">
    <g id="Group_88" data-name="Group 88" transform="translate(-0.5 -0.5)">
      <g id="Path_96" data-name="Path 96" transform="translate(0.5 0.5)" fill="none">
        <path d="M1.565,0h20.87A1.565,1.565,0,0,1,24,1.565v20.87A1.565,1.565,0,0,1,22.435,24H1.565A1.565,1.565,0,0,1,0,22.435V1.565A1.565,1.565,0,0,1,1.565,0Z" stroke="none"/>
        <path d="M 1.565219879150391 1 C 1.253559112548828 1 1 1.253559112548828 1 1.565219879150391 L 1 22.43478012084961 C 1 22.74644088745117 1.253559112548828 23 1.565219879150391 23 L 22.43478012084961 23 C 22.74644088745117 23 23 22.74644088745117 23 22.43478012084961 L 23 1.565219879150391 C 23 1.253559112548828 22.74644088745117 1 22.43478012084961 1 L 1.565219879150391 1 M 1.565219879150391 0 L 22.43478012084961 0 C 23.29923057556152 0 24 0.7007694244384766 24 1.565219879150391 L 24 22.43478012084961 C 24 23.29923057556152 23.29923057556152 24 22.43478012084961 24 L 1.565219879150391 24 C 0.7007694244384766 24 0 23.29923057556152 0 22.43478012084961 L 0 1.565219879150391 C 0 0.7007694244384766 0.7007694244384766 0 1.565219879150391 0 Z" stroke="none" fill="#323237"/>
      </g>
      <path id="Path_95" data-name="Path 95" d="M6.2,7.294c1.624,2.082,4.623,5.94,4.623,5.94v4.823a.806.806,0,0,0,.8.8h1.608a.806.806,0,0,0,.8-.8V13.234s2.991-3.858,4.615-5.94A.8.8,0,0,0,18.018,6H6.834A.8.8,0,0,0,6.2,7.294Z" transform="translate(0.07 0.07)" fill="#323237"/>
    </g>
  </g>
</svg>
