<?xml version="1.0" encoding="UTF-8"?>
<svg width="38px" height="24px" viewBox="0 0 38 24" version="1.1" xmlns="http://www.w3.org/2000/svg" xmlns:xlink="http://www.w3.org/1999/xlink">
    <!-- Generator: Sketch 60 (88103) - https://sketch.com -->
    <title>Group 16</title>
    <desc>Created with Sketch.</desc>
    <g id="3.-Pagos" stroke="none" stroke-width="1" fill="none" fill-rule="evenodd">
        <g id="Pagos-DSK-003A-EU" transform="translate(-162.000000, -440.000000)" fill-rule="nonzero">
            <g id="Debit/Credit-card-desplegada" transform="translate(114.000000, 288.000000)">
                <g id="Card-number" transform="translate(48.000000, 128.000000)">
                    <g id="credit-card" transform="translate(0.000000, 24.000000)">
                        <g id="Group-15">
                            <g id="Group-16">
                                <path d="M35.03125,0 L2.96875,0 C1.33185547,0 0,1.17032609 0,2.60869565 L0,21.3913043 C0,22.8296739 1.33185547,24 2.96875,24 L35.03125,24 C36.6681445,24 38,22.8296739 38,21.3913043 L38,2.60869565 C38,1.17032609 36.6681445,0 35.03125,0 Z" id="Path" fill="#C9C9CD"></path>
                                <path d="M13.2098765,10.3448276 L6.17283951,10.3448276 C5.52506559,10.3448276 5,9.88170259 5,9.31034483 L5,5.17241379 C5,4.60105603 5.52506559,4.13793103 6.17283951,4.13793103 L13.2098765,4.13793103 C13.8576505,4.13793103 14.382716,4.60105603 14.382716,5.17241379 L14.382716,9.31034483 C14.382716,9.88170259 13.8576505,10.3448276 13.2098765,10.3448276 Z" id="Path" fill="#7A7886"></path>
                                <path d="M8.88888889,16.9655172 L6.11111111,16.9655172 C5.49743056,16.9655172 5,16.5209172 5,15.9724138 L5,15.4758621 C5,14.9273586 5.49743056,14.4827586 6.11111111,14.4827586 L8.88888889,14.4827586 C9.50256944,14.4827586 10,14.9273586 10,15.4758621 L10,15.9724138 C10,16.5209172 9.50256944,16.9655172 8.88888889,16.9655172 Z" id="Path" fill="#7A7886"></path>
                                <path d="M15.8888889,16.9655172 L13.1111111,16.9655172 C12.4974306,16.9655172 12,16.5209172 12,15.9724138 L12,15.4758621 C12,14.9273586 12.4974306,14.4827586 13.1111111,14.4827586 L15.8888889,14.4827586 C16.5025694,14.4827586 17,14.9273586 17,15.4758621 L17,15.9724138 C17,16.5209172 16.5025694,16.9655172 15.8888889,16.9655172 Z" id="Path" fill="#7A7886"></path>
                                <path d="M22.8888889,16.9655172 L20.1111111,16.9655172 C19.4974306,16.9655172 19,16.5209172 19,15.9724138 L19,15.4758621 C19,14.9273586 19.4974306,14.4827586 20.1111111,14.4827586 L22.8888889,14.4827586 C23.5025694,14.4827586 24,14.9273586 24,15.4758621 L24,15.9724138 C24,16.5209172 23.5025694,16.9655172 22.8888889,16.9655172 Z" id="Path" fill="#7A7886"></path>
                                <path d="M29.8888889,16.9655172 L27.1111111,16.9655172 C26.4974306,16.9655172 26,16.5209172 26,15.9724138 L26,15.4758621 C26,14.9273586 26.4974306,14.4827586 27.1111111,14.4827586 L29.8888889,14.4827586 C30.5025694,14.4827586 31,14.9273586 31,15.4758621 L31,15.9724138 C31,16.5209172 30.5025694,16.9655172 29.8888889,16.9655172 Z" id="Path" fill="#7A7886"></path>
                                <path d="M17.5387205,20.2758621 L5.59708193,20.2758621 C5.26704489,20.2758621 5,19.9979483 5,19.6551724 C5,19.3123966 5.26704489,19.0344828 5.59708193,19.0344828 L17.5387205,19.0344828 C17.8687576,19.0344828 18.1358025,19.3123966 18.1358025,19.6551724 C18.1358025,19.9979483 17.8687576,20.2758621 17.5387205,20.2758621 Z" id="Path" fill="#7A7886"></path>
                                <path d="M25.4545455,20.2413793 L20.5454545,20.2413793 C20.2439545,20.2413793 20,19.9634655 20,19.6206897 C20,19.2779138 20.2439545,19 20.5454545,19 L25.4545455,19 C25.7560455,19 26,19.2779138 26,19.6206897 C26,19.9634655 25.7560455,20.2413793 25.4545455,20.2413793 Z" id="Path" fill="#7A7886"></path>
                            </g>
                        </g>
                    </g>
                </g>
            </g>
        </g>
    </g>
</svg>