<?xml version="1.0" encoding="UTF-8"?>
<svg width="55px" height="34px" viewBox="0 0 55 34" version="1.1" xmlns="http://www.w3.org/2000/svg" xmlns:xlink="http://www.w3.org/1999/xlink">
    <!-- Generator: Sketch 60.1 (88133) - https://sketch.com -->
    <title>Group 2</title>
    <desc>Created with Sketch.</desc>
    <g id="Componentes" stroke="none" stroke-width="1" fill="none" fill-rule="evenodd">
        <g id="Comp/DSK/Footer/Colombia" transform="translate(-690.000000, -75.000000)" fill-rule="nonzero">
            <g id="Medios" transform="translate(628.000000, 62.000000)">
                <g id="Mastercard" transform="translate(63.000000, 14.000000)">
                    <g id="Group-2">
                        <rect id="Rectangle" stroke="#EAEAEA" fill="#FFFFFF" x="0" y="0" width="53" height="32" rx="4.354"></rect>
                        <path d="M38,16.4928857 C37.9942375,19.2042898 36.2279969,21.6286082 33.565936,22.579023 C30.9005807,23.5358871 27.8927214,22.8278425 26,20.7980155 C28.287965,18.34808 28.287965,14.6514021 26,12.2014666 C27.8914029,10.1734843 30.8961855,9.46508121 33.5601868,10.419088 C36.2200948,11.3661131 37.9879637,13.784611 38,16.4928857 L38,16.4928857 Z" id="Path" fill="#F79E1B"></path>
                        <path d="M28,15.9936204 C27.9973376,17.4706808 27.2852497,18.8958689 25.9982332,20 C23.3339223,17.7200754 23.3339223,14.2799246 25.9982332,12 C27.2814345,13.1008409 27.9932562,14.5209591 28,15.9936204 L28,15.9936204 Z" id="Path" fill="#FF5F00"></path>
                        <path d="M24.2830482,16.4931589 C24.2853318,18.0770704 24.8961025,19.6053572 26,20.7893616 C24.1121174,22.8232391 21.1033707,23.5361855 18.4359373,22.5817264 C15.7712879,21.6344709 14.0032904,19.2105237 14,16.5 C14.0032904,13.7894763 15.7712879,11.3655291 18.4359373,10.4182736 C21.1033707,9.46381445 24.1121174,10.1767609 26,12.2106384 C24.8993749,13.3911145 24.2888325,14.9139646 24.2830482,16.4931589 Z" id="Path" fill="#EB001B"></path>
                    </g>
                </g>
            </g>
        </g>
    </g>
</svg>