<svg width="24" height="24" viewBox="0 0 24 24" fill="none" xmlns="http://www.w3.org/2000/svg">
<path fill-rule="evenodd" clip-rule="evenodd" d="M12.0722 10.459C11.8036 12.5083 11.5181 14.5555 11.2791 16.6081C11.2215 17.1031 11.0911 17.2987 10.5521 17.2914C8.26997 17.2605 5.98723 17.2784 3.70475 17.2763C3.51583 17.2761 3.32677 17.2584 3.06681 17.245C3.04927 17.0038 3.01919 16.7804 3.01881 16.5569C3.0142 13.4852 3.02661 10.4133 3.00012 7.34175C2.99538 6.78828 3.13132 6.56659 3.71154 6.62188C4.23531 6.6718 4.76766 6.63238 5.35108 6.63238V15.3057H9.31099C9.53242 13.6302 9.7545 11.9652 9.97172 10.2996C10.1096 9.24292 10.2486 8.18629 10.3693 7.12761C10.4109 6.76307 10.5641 6.6366 10.9416 6.6238C13.3261 6.54278 13.3254 6.53382 13.9219 8.83435C14.2695 10.1749 14.618 11.515 14.9679 12.8549C14.9779 12.8932 15.0089 12.9258 15.0785 13.0417C15.5182 11.3531 15.949 9.73021 16.3619 8.10283C16.6935 6.79635 16.9067 6.61996 18.2494 6.63123C19.6835 6.64313 19.6636 6.64569 19.8476 8.11755C20.1994 10.9303 20.577 13.74 20.9414 16.5513C20.9682 16.7588 20.9759 16.9688 21.0001 17.2746C20.3601 17.2746 19.7674 17.3102 19.185 17.2484C19.048 17.2338 18.8686 16.901 18.84 16.6963C18.5608 14.6907 18.3095 12.6811 18.0501 10.6727C18.0371 10.5714 18.0223 10.4702 17.9238 10.3527C17.8376 10.6519 17.7452 10.9494 17.6666 11.2506C17.1928 13.0651 16.713 14.8782 16.2574 16.6973C16.1559 17.1028 16.0112 17.2971 15.5392 17.2933C14.0326 17.2811 14.0228 17.3067 13.6307 15.8547C13.2083 14.2909 12.8073 12.7216 12.3954 11.155C12.3327 10.9157 12.2623 10.6786 12.1954 10.4405C12.1544 10.4468 12.1133 10.4529 12.0722 10.459" fill="#F57C00"/>
</svg>
