<svg width="24" height="24" viewBox="0 0 24 24" fill="none" xmlns="http://www.w3.org/2000/svg">
<path fill-rule="evenodd" clip-rule="evenodd" d="M16.553 20.6119H12.3005V18.7015L16.553 16.991V20.6119ZM19.1547 13.9849C19.1547 13.9849 18.828 12.7136 17.843 11.6667L14.333 12.7258L12.1547 13.3788L11.1063 10.6867L10.0772 8.25363L8.838 5.29711C8.838 5.29711 8.23467 3.83798 6.76717 4.34841C6.76717 4.34841 6.72384 4.36494 6.65884 4.39798L6.3155 2.42754C6.2655 2.14581 6.0055 1.95711 5.7355 2.00841L5.40967 2.07015C5.13967 2.12146 4.95884 2.39363 5.008 2.67537L5.59717 6.05363C5.60967 6.12668 5.638 6.19276 5.67634 6.25102C5.6905 6.50667 5.73717 6.78928 5.8405 7.11189L9.353 15.4754L10.1705 17.3919C10.1705 17.3919 10.4913 18.2084 10.8647 18.4249L10.868 19.4875L10.8647 20.6345L10.8497 21.3215C10.8497 21.3215 10.9205 21.9319 11.3788 21.9615C11.8372 21.991 13.5313 21.9693 13.5313 21.9693H15.7505L17.4872 21.9649C17.4872 21.9649 17.8955 21.9467 18.0155 21.491L18.0472 20.8658L18.0397 19.7154L18.0438 18.3145L18.0505 16.6275C18.0505 16.6275 18.7238 16.5215 19.158 15.9171C19.158 15.9171 19.563 15.4997 19.1547 13.9849V13.9849Z" fill="#F52800"/>
<mask id="mask0_3166_64537" style="mask-type:alpha" maskUnits="userSpaceOnUse" x="5" y="2" width="15" height="20">
<path fill-rule="evenodd" clip-rule="evenodd" d="M16.553 20.6119H12.3005V18.7015L16.553 16.991V20.6119ZM19.1547 13.9849C19.1547 13.9849 18.828 12.7136 17.843 11.6667L14.333 12.7258L12.1547 13.3788L11.1063 10.6867L10.0772 8.25363L8.838 5.29711C8.838 5.29711 8.23467 3.83798 6.76717 4.34841C6.76717 4.34841 6.72384 4.36494 6.65884 4.39798L6.3155 2.42754C6.2655 2.14581 6.0055 1.95711 5.7355 2.00841L5.40967 2.07015C5.13967 2.12146 4.95884 2.39363 5.008 2.67537L5.59717 6.05363C5.60967 6.12668 5.638 6.19276 5.67634 6.25102C5.6905 6.50667 5.73717 6.78928 5.8405 7.11189L9.353 15.4754L10.1705 17.3919C10.1705 17.3919 10.4913 18.2084 10.8647 18.4249L10.868 19.4875L10.8647 20.6345L10.8497 21.3215C10.8497 21.3215 10.9205 21.9319 11.3788 21.9615C11.8372 21.991 13.5313 21.9693 13.5313 21.9693H15.7505L17.4872 21.9649C17.4872 21.9649 17.8955 21.9467 18.0155 21.491L18.0472 20.8658L18.0397 19.7154L18.0438 18.3145L18.0505 16.6275C18.0505 16.6275 18.7238 16.5215 19.158 15.9171C19.158 15.9171 19.563 15.4997 19.1547 13.9849V13.9849Z" fill="white"/>
</mask>
<g mask="url(#mask0_3166_64537)">
</g>
</svg>
