<svg xmlns="http://www.w3.org/2000/svg" width="51" height="32" viewBox="0 0 51 32">
    <defs>
        <linearGradient id="l2st6x5n4a" x1="-23.4%" x2="126.755%" y1="50%" y2="50%">
            <stop offset="0%" stop-color="#22215F"/>
            <stop offset="100%" stop-color="#074899"/>
        </linearGradient>
    </defs>
    <g fill="none" fill-rule="evenodd">
        <g fill-rule="nonzero">
            <g>
                <g transform="translate(-757 -1225) translate(0 1145) translate(757 80)">
                    <rect width="50" height="31" x=".5" y=".5" fill="#FFF" stroke="#DEDDDD" rx="4"/>
                    <path fill="url(#l2st6x5n4a)" d="M20.005 10.219l-4.62 11.596H12.34l-2.235-9.19c-.038-.443-.295-.833-.677-1.026-.896-.454-1.842-.787-2.817-.993v-.337h4.83c.657 0 1.218.5 1.32 1.178l1.207 6.732 2.965-7.893 3.073-.067h-.001zm11.802 7.809c0-3.063-4.024-3.232-3.992-4.595 0-.42.385-.858 1.207-.976.962-.094 1.93.086 2.802.522l.499-2.457c-.854-.34-1.76-.517-2.673-.522-2.817 0-4.83 1.582-4.83 3.837 0 1.683 1.417 2.609 2.495 3.164 1.079.556 1.482.926 1.482 1.448 0 .774-.886 1.127-1.708 1.127-1.02.021-2.03-.234-2.93-.74l-.547 2.541c1.025.42 2.118.633 3.22.623 2.996 0 4.943-1.549 4.959-3.972h.016zm7.424 3.787h2.64l-2.302-11.596h-2.416c-.531.001-1.009.34-1.207.858l-4.283 10.738h2.995l.596-1.683h3.653l.324 1.683zm-3.22-4.107l1.496-4.359.918 4.325-2.415.034zm-11.981-7.49l-2.35 11.597h-2.802l2.352-11.596h2.802-.002z"/>
                </g>
            </g>
        </g>
    </g>
</svg>
