<?xml version="1.0" encoding="UTF-8"?><svg id="a" xmlns="http://www.w3.org/2000/svg" viewBox="0 0 300 300"><defs><style>.b{fill:#343434;}</style></defs><path class="b" d="M287.83,61.26C271.37,24.59,234.91,1,194.71,1h-.1c-56.41,.02-102.13,45.76-102.11,102.17,0,11.43,1.93,22.78,5.69,33.58L6.49,228.51c-2.13,2.11-3.31,5-3.28,8v51.23c.03,6.21,5.05,11.23,11.26,11.26H56.73c2.97-.02,5.82-1.2,7.94-3.28l14.22-14.23c2.12-2.12,3.31-5,3.3-8v-13.29h13.3c6.23-.01,11.27-5.06,11.27-11.29v-2.85h2.85c6.23,0,11.28-5.04,11.3-11.27v-11.22h11.17c2.81,.3,5.89-1.19,8-3.28l20.95-20.91c53.2,18.61,111.41-9.42,130.03-62.62,8.62-24.65,7.47-51.67-3.23-75.5h0ZM25.75,241.15l93.68-93.72c3.24-3.28,4.15-8.21,2.29-12.43-17.65-40.23,.65-87.16,40.89-104.81,40.23-17.65,87.16,.65,104.81,40.89,17.65,40.23-.65,87.16-40.89,104.81-10.06,4.41-20.92,6.69-31.9,6.7v-.06h-.2c-10.92,0-21.72-2.26-31.71-6.67-4.23-1.81-9.13-.91-12.43,2.29l-22.83,22.85h-17.83c-6.22,0-11.26,5.05-11.27,11.27v11.23h-2.85c-6.23,0-11.28,5.06-11.28,11.29v2.85h-13.32c-6.22,0-11.26,5.05-11.27,11.27v19.94l-7.61,7.61H25.75v-35.31Z"/><path class="b" d="M198.83,129.08c16.57,0,30-13.43,30-30s-13.43-30-30-30-30,13.43-30,30h0c0,16.57,13.43,30,30,30Zm-7.92-30c0-4.38,3.54-7.93,7.92-7.94,4.38,0,7.93,3.54,7.94,7.92s-3.54,7.93-7.92,7.94c0,0-.01,0-.02,0-4.38,0-7.92-3.55-7.92-7.93h0Z"/></svg>