<svg width="24" height="24" viewBox="0 0 24 24" fill="none" xmlns="http://www.w3.org/2000/svg">
<path fill-rule="evenodd" clip-rule="evenodd" d="M11.0872 3.5V4.5H20.9982L20.9986 16.9259C20.8973 19.3019 20.0931 20.4216 18.5413 20.496L18.3722 20.5H11.0872V21.5H18.3722C20.5772 21.5 21.7964 20.0091 21.985 17.221L22 16.9472V3.5H11.0872ZM9.11682 18.0869L13.8813 13.3719C14.5808 12.6913 14.5808 11.874 13.8929 11.1595L12.9825 10.2477L9.11291 6.47827L8.4154 7.19608L11.996 10.6809C12.5119 11.188 12.8793 11.5536 13.0977 11.7773L3.00011 11.7773V12.7773L13.0592 12.7773L8.41149 17.3767L9.11682 18.0869Z" fill="#2C2A29"/>
</svg>