<svg width="218" height="60" viewBox="0 0 218 60" fill="none" xmlns="http://www.w3.org/2000/svg">
<path fill-rule="evenodd" clip-rule="evenodd" d="M25.9963 26.3984C26.1225 26.8778 26.6151 27.125 27.1155 26.9624C31.2182 25.7287 35.3309 24.8844 39.5744 24.2702C40.0607 24.2066 40.3269 23.7151 40.1481 23.222C39.7713 22.1832 39.5809 21.6651 39.1958 20.6323C39.0323 20.1938 38.5901 19.9061 38.1375 19.9541C33.9904 20.4538 29.9838 21.1918 25.9683 22.3286C25.4454 22.489 25.1243 23.0612 25.2562 23.5688C25.5496 24.6991 25.6976 25.2648 25.9963 26.3984Z" fill="#2C2A29"/>
<path fill-rule="evenodd" clip-rule="evenodd" d="M42.6239 26.9662C42.4647 26.502 42.0325 26.1917 41.6052 26.2464C35.1128 27.0552 28.7909 28.6238 22.796 31.2161C22.3588 31.4182 22.0965 31.9558 22.1881 32.4295C22.4231 33.6412 22.5417 34.2475 22.7816 35.4614C22.8841 35.9805 23.3801 36.2194 23.8694 35.9863C29.9587 33.2608 36.3937 31.5254 42.9951 30.4906C43.4146 30.4234 43.6285 29.9536 43.468 29.4694C43.1354 28.4657 42.9665 27.9652 42.6239 26.9662Z" fill="#2C2A29"/>
<path fill-rule="evenodd" clip-rule="evenodd" d="M42.6051 33.7323C42.4443 33.2367 41.9739 32.9134 41.5271 33.0033C37.4733 33.8628 33.5109 34.8987 29.5857 36.2169C29.0879 36.3955 28.8075 36.9087 28.9383 37.3809C29.2503 38.5058 29.4074 39.0691 29.7233 40.1974C29.8716 40.7275 30.4804 40.9987 31.0412 40.7899C34.965 39.4166 38.9283 38.2174 42.9782 37.2561C43.3666 37.1638 43.5578 36.7186 43.4134 36.2594C43.0946 35.2464 42.933 34.7409 42.6051 33.7323Z" fill="#2C2A29"/>
<path fill-rule="evenodd" clip-rule="evenodd" d="M58.0832 32.6227C58.0832 31.2598 57.1961 30.6941 55.448 30.6941H53.3608V34.5511H55.4219C57.1178 34.5511 58.0832 33.8827 58.0832 32.6227ZM55.0306 23.9316C54.4827 23.9316 53.9089 23.983 53.3608 24.0602V27.48H55.135C56.7002 27.48 57.4309 26.8371 57.4309 25.7316C57.4309 24.6773 56.6743 23.9316 55.0306 23.9316ZM62.3616 32.8027C62.3616 35.8111 59.2832 37.8168 55.787 37.8168H49.3691V21.2061C51.5086 20.8975 53.1262 20.6918 55.0306 20.6918C58.5526 20.6918 61.3704 22.3116 61.3704 25.1402C61.3704 26.76 60.5094 27.84 58.9701 28.4314C61.3443 29.1 62.3616 30.5143 62.3616 32.8027Z" fill="#2C2A29"/>
<path fill-rule="evenodd" clip-rule="evenodd" d="M71.5542 34.5255V32.3143H70.7976C69.0236 32.3143 67.406 32.7 67.406 33.9084C67.406 34.8341 68.0322 35.1684 69.3106 35.1684C70.3281 35.1684 71.1628 34.8596 71.5542 34.5255ZM75.3893 29.7171V36.4796C73.9806 37.5339 71.7107 38.0996 68.6322 38.0996C65.8929 38.0996 63.623 36.9939 63.623 34.5511C63.623 30.8741 67.2494 29.9743 71.5542 29.8457C71.4759 28.2514 70.8237 27.84 69.3887 27.84C68.6322 27.84 66.6233 28.1743 66.3625 28.1743C65.7362 28.1743 65.2407 27.7886 64.8232 26.6573L64.5099 25.7316C66.1276 25.1402 67.7191 24.7287 69.441 24.7287C73.1979 24.7287 75.3893 26.1173 75.3893 29.7171Z" fill="#2C2A29"/>
<path fill-rule="evenodd" clip-rule="evenodd" d="M89.7555 28.6629V37.8168H85.8421V30.0255C85.8421 28.6629 84.9291 27.9686 83.3376 27.9686C82.7377 27.9686 82.1637 28.0457 81.6678 28.1743V37.8168H77.7285L77.7544 26.3745C79.3981 25.2945 82.0592 24.703 84.2247 24.703C87.2251 24.703 89.7555 26.1686 89.7555 28.6629Z" fill="#2C2A29"/>
<path fill-rule="evenodd" clip-rule="evenodd" d="M91.4531 31.5428C91.4531 27.0428 94.636 24.6773 98.7581 24.6773C99.9061 24.6773 100.95 24.8316 102.202 25.1144C102.045 26.4002 101.497 27.5314 100.898 28.1743C100.454 28.0457 99.7234 27.9428 99.3062 27.9428C96.671 27.9428 95.6013 29.28 95.6013 31.3114C95.6013 33.3684 96.5928 34.6284 99.0712 34.6284C99.7497 34.6284 100.532 34.4998 101.497 34.1654L102.202 37.2511C100.767 37.8168 99.2799 38.0739 98.1058 38.0739C94.0883 38.0739 91.4531 35.7082 91.4531 31.5428Z" fill="#2C2A29"/>
<path fill-rule="evenodd" clip-rule="evenodd" d="M112.638 31.3629C112.638 29.2543 111.594 28.02 109.768 28.02C107.994 28.02 106.898 29.2543 106.898 31.3629C106.898 33.5741 107.968 34.7313 109.768 34.7313C111.594 34.7313 112.638 33.5741 112.638 31.3629ZM102.959 31.3628C102.959 27.2486 105.777 24.6773 109.768 24.6773C113.916 24.6773 116.577 27.3514 116.577 31.3628C116.577 35.5025 113.89 38.0739 109.768 38.0739C105.62 38.0739 102.959 35.4255 102.959 31.3628Z" fill="#2C2A29"/>
<path fill-rule="evenodd" clip-rule="evenodd" d="M118.795 21.3089C119.708 20.6403 121.691 20.0746 122.734 20.0746V37.8168H118.795V21.3089Z" fill="#2C2A29"/>
<path fill-rule="evenodd" clip-rule="evenodd" d="M134.632 31.3629C134.632 29.2543 133.589 28.02 131.763 28.02C129.988 28.02 128.893 29.2543 128.893 31.3629C128.893 33.5741 129.962 34.7313 131.763 34.7313C133.589 34.7313 134.632 33.5741 134.632 31.3629ZM124.953 31.3628C124.953 27.2486 127.771 24.6773 131.763 24.6773C135.911 24.6773 138.572 27.3514 138.572 31.3628C138.572 35.5025 135.885 38.0739 131.763 38.0739C127.614 38.0739 124.953 35.4255 124.953 31.3628Z" fill="#2C2A29"/>
<path fill-rule="evenodd" clip-rule="evenodd" d="M160.514 28.6629V37.8168H156.626V30.0255C156.626 28.6629 155.74 27.9686 154.174 27.9686C153.444 27.9686 152.739 28.1229 152.165 28.3543C152.374 28.92 152.478 29.5371 152.478 30.2057V37.8168H148.591V30.0255C148.591 28.6629 147.704 27.9686 146.138 27.9686C145.538 27.9686 144.964 28.0457 144.469 28.1743V37.8168H140.529L140.555 26.3745C142.121 25.2945 144.573 24.703 146.634 24.703C148.278 24.703 149.687 25.243 150.704 26.1173C152.035 25.2686 153.887 24.703 155.452 24.703C158.296 24.703 160.514 26.1943 160.514 28.6629Z" fill="#2C2A29"/>
<path fill-rule="evenodd" clip-rule="evenodd" d="M172.437 31.1828C172.437 28.8171 171.184 27.9686 169.176 27.9686C168.367 27.9686 167.715 28.1228 167.141 28.38V34.8341C167.845 34.9368 168.524 34.9882 169.15 34.9882C171.445 34.9882 172.437 33.2398 172.437 31.1828ZM176.324 30.6941C176.324 35.3739 173.507 38.0739 168.915 38.0739C166.671 38.0739 164.506 37.6625 163.201 37.0712V21.3089C164.114 20.6403 166.123 20.0746 167.141 20.0746V26.1686C168.263 25.2173 169.619 24.703 170.845 24.703C174.733 24.703 176.324 27.3514 176.324 30.6941Z" fill="#2C2A29"/>
<path fill-rule="evenodd" clip-rule="evenodd" d="M178.543 25.063C179.09 24.8316 179.769 24.703 180.525 24.703C181.282 24.703 181.934 24.8316 182.482 25.063V37.8168H178.543V25.063ZM178.49 21.0002C178.49 19.9204 179.403 19.0204 180.499 19.0204C181.621 19.0204 182.534 19.8946 182.534 21.0002C182.534 22.0545 181.621 22.9802 180.499 22.9802C179.403 22.9802 178.49 22.1059 178.49 21.0002Z" fill="#2C2A29"/>
<path fill-rule="evenodd" clip-rule="evenodd" d="M192.369 34.5255V32.3143H191.612C189.838 32.3143 188.221 32.7 188.221 33.9084C188.221 34.8341 188.847 35.1684 190.125 35.1684C191.143 35.1684 191.978 34.8596 192.369 34.5255ZM196.204 29.7171V36.4796C194.795 37.5339 192.526 38.0996 189.447 38.0996C186.707 38.0996 184.438 36.9939 184.438 34.5511C184.438 30.8741 188.064 29.9743 192.369 29.8457C192.291 28.2514 191.638 27.84 190.203 27.84C189.447 27.84 187.438 28.1743 187.177 28.1743C186.551 28.1743 186.055 27.7886 185.638 26.6573L185.325 25.7316C186.942 25.1402 188.534 24.7287 190.256 24.7287C194.013 24.7287 196.204 26.1173 196.204 29.7171Z" fill="#2C2A29"/>
</svg>
