<svg width="24" height="25" viewBox="0 0 24 25" fill="none" xmlns="http://www.w3.org/2000/svg">
<path fill-rule="evenodd" clip-rule="evenodd" d="M7 10.0212V7.02124C7 4.26424 9.243 2.02124 12 2.02124C14.757 2.02124 17 4.26424 17 7.02124V10.0212H19V15.0212C19 18.8812 15.86 22.0212 12 22.0212C8.14 22.0212 5 18.8812 5 15.0212V10.0212H7ZM12 3.02124C14.206 3.02124 16 4.81524 16 7.02124V10.0212H8V7.02124C8 4.81524 9.794 3.02124 12 3.02124ZM6 11.0212V15.0212C6 18.3302 8.691 21.0212 12 21.0212C15.309 21.0212 18 18.3302 18 15.0212V11.0212H6ZM11 14.0212C11 13.4702 11.449 13.0212 12 13.0212C12.551 13.0212 13 13.4702 13 14.0212C13 14.5722 12.551 15.0212 12 15.0212C11.449 15.0212 11 14.5722 11 14.0212ZM12.5 15.958C13.3618 15.7355 14 14.9516 14 14.0212C14 12.9182 13.103 12.0212 12 12.0212C10.897 12.0212 10 12.9182 10 14.0212C10 14.9516 10.6382 15.7355 11.5 15.958V18.0212H12.5V15.958Z" fill="#2C2A29"/>
</svg>
