<?xml version="1.0" encoding="UTF-8"?>
<svg xmlns="http://www.w3.org/2000/svg" xmlns:xlink="http://www.w3.org/1999/xlink" width="px" height="px" viewBox="0 0 803 264" version="1.1">
<g id="surface1">
<path style=" stroke:none;fill-rule:evenodd;fill:rgb(56.470588%,38.823529%,80.392157%);fill-opacity:1;" d="M 775.585938 18.972656 C 770.445312 17.84375 765.261719 17.269531 760.203125 17.371094 L 760.160156 17.371094 C 754.859375 17.453125 749.628906 18.003906 744.578125 19.082031 C 739.414062 20.207031 734.355469 21.75 729.4375 23.667969 C 724.523438 25.667969 719.75 28 715.152344 30.636719 C 710.523438 33.386719 706.09375 36.367188 701.910156 39.613281 C 701.910156 39.613281 701.902344 39.617188 701.902344 39.617188 C 701.261719 40.113281 700.734375 40.554688 700.105469 41.074219 C 699.710938 41.398438 699.28125 41.757812 698.765625 42.175781 L 697.277344 43.40625 L 695.839844 44.695312 C 695.296875 45.195312 694.867188 45.582031 694.480469 45.921875 C 693.914062 46.425781 693.457031 46.828125 692.914062 47.359375 L 689.824219 50.394531 L 689.773438 50.441406 C 689.457031 50.742188 689.113281 51.101562 688.691406 51.5625 L 688.667969 51.589844 L 687.175781 53.195312 C 687.117188 53.257812 687.054688 53.324219 686.996094 53.386719 C 686.042969 54.40625 685.324219 55.171875 684.667969 55.972656 L 684.621094 56.027344 L 681.917969 59.210938 L 679.402344 62.453125 C 676.503906 66.183594 671.128906 66.859375 667.40625 63.960938 C 663.675781 61.0625 663.003906 55.6875 665.898438 51.957031 L 668.652344 48.414062 L 671.507812 45.054688 C 672.515625 43.832031 673.578125 42.691406 674.441406 41.773438 C 674.519531 41.6875 674.605469 41.601562 674.679688 41.515625 C 674.679688 41.515625 674.683594 41.515625 674.683594 41.511719 L 676.113281 39.980469 C 676.636719 39.40625 677.253906 38.757812 677.933594 38.101562 L 680.964844 35.125 L 680.976562 35.109375 C 681.769531 34.339844 682.753906 33.460938 683.519531 32.777344 C 683.839844 32.492188 684.121094 32.238281 684.332031 32.042969 L 684.363281 32.015625 L 686.113281 30.441406 L 687.933594 28.941406 L 687.960938 28.917969 C 688.230469 28.699219 688.550781 28.433594 688.902344 28.140625 C 689.679688 27.503906 690.601562 26.738281 691.425781 26.097656 C 696.253906 22.355469 701.296875 18.972656 706.480469 15.890625 L 706.535156 15.859375 L 706.59375 15.824219 C 711.882812 12.792969 717.378906 10.105469 723.054688 7.796875 L 723.109375 7.777344 L 723.160156 7.753906 C 728.917969 5.503906 734.871094 3.6875 740.957031 2.363281 L 740.988281 2.355469 C 747.226562 1.023438 753.570312 0.363281 759.882812 0.265625 C 766.414062 0.136719 772.902344 0.875 779.15625 2.242188 C 782.199219 2.84375 785.148438 3.78125 787.550781 4.546875 C 787.867188 4.648438 788.167969 4.742188 788.457031 4.835938 L 788.726562 4.921875 L 793.011719 6.59375 C 794.117188 7.003906 795.101562 7.484375 795.699219 7.777344 L 795.734375 7.796875 L 797.699219 8.742188 C 801.949219 10.792969 803.730469 15.90625 801.683594 20.160156 C 799.628906 24.417969 794.523438 26.203125 790.269531 24.152344 L 788.261719 23.183594 L 788.238281 23.171875 C 787.53125 22.824219 787.277344 22.707031 787.085938 22.640625 L 786.984375 22.605469 L 783.039062 21.0625 C 782.820312 20.992188 782.605469 20.925781 782.390625 20.859375 C 779.832031 20.046875 777.828125 19.410156 775.785156 19.011719 L 775.6875 18.992188 Z M 775.585938 18.972656 "/>
<path style=" stroke:none;fill-rule:evenodd;fill:rgb(99.215686%,85.490196%,14.117647%);fill-opacity:1;" d="M 741.796875 18.496094 C 742.855469 21.453125 741.316406 24.707031 738.363281 25.765625 C 724.761719 30.636719 712.011719 38.109375 701.128906 47.59375 C 695.707031 52.324219 690.765625 57.554688 686.480469 63.207031 L 615.667969 158.222656 C 613.792969 160.742188 610.230469 161.261719 607.71875 159.382812 C 605.199219 157.507812 604.683594 153.945312 606.554688 151.425781 L 677.398438 56.367188 L 677.414062 56.347656 C 682.203125 50.035156 687.6875 44.234375 693.664062 39.019531 L 693.667969 39.015625 C 705.617188 28.605469 719.601562 20.40625 734.535156 15.058594 C 737.488281 14 740.742188 15.539062 741.796875 18.496094 Z M 741.796875 18.496094 "/>
<path style=" stroke:none;fill-rule:evenodd;fill:rgb(100%,49.803922%,25.490196%);fill-opacity:1;" d="M 83.769531 138.007812 C 55.929688 147.210938 31.128906 164.539062 15.851562 187.246094 C 13.214844 191.164062 7.902344 192.203125 3.988281 189.5625 C 0.0703125 186.925781 -0.964844 181.609375 1.667969 177.691406 C 19.40625 151.332031 47.59375 131.949219 78.40625 121.761719 C 109.21875 111.574219 143.378906 110.347656 173.328125 121.214844 C 199.339844 130.65625 221.773438 147.078125 241.902344 163.882812 C 245.527344 166.910156 246.015625 172.304688 242.992188 175.929688 C 239.964844 179.558594 234.574219 180.046875 230.949219 177.019531 C 211.242188 160.5625 190.652344 145.703125 167.496094 137.296875 C 141.765625 127.960938 111.609375 128.800781 83.769531 138.007812 Z M 83.769531 138.007812 "/>
<path style=" stroke:none;fill-rule:evenodd;fill:rgb(99.215686%,85.490196%,14.117647%);fill-opacity:1;" d="M 152.042969 122.722656 C 142.074219 121.1875 131.875 121.027344 121.78125 122.191406 C 118.664062 122.554688 115.84375 120.316406 115.484375 117.195312 C 115.125 114.078125 117.359375 111.257812 120.476562 110.898438 C 131.546875 109.617188 142.757812 109.789062 153.746094 111.476562 L 155.699219 111.765625 C 156.265625 111.847656 157 111.992188 157.472656 112.085938 C 157.636719 112.117188 157.765625 112.140625 157.851562 112.15625 L 157.878906 112.164062 L 161.933594 112.945312 L 165.933594 113.902344 L 167.992188 114.40625 L 169.96875 114.976562 C 175.40625 116.449219 180.617188 118.414062 185.601562 120.46875 L 185.679688 120.5 L 185.757812 120.535156 C 186.128906 120.699219 186.511719 120.871094 186.902344 121.042969 C 188.894531 121.925781 191.089844 122.902344 193.210938 124.015625 C 195.382812 125.0625 197.492188 126.261719 199.402344 127.347656 C 199.753906 127.550781 200.101562 127.746094 200.4375 127.9375 C 201.332031 128.433594 202.359375 129.089844 203.160156 129.601562 C 203.5 129.816406 203.796875 130.007812 204.027344 130.148438 L 204.0625 130.171875 L 204.101562 130.195312 C 204.285156 130.3125 204.488281 130.441406 204.707031 130.578125 C 205.589844 131.132812 206.683594 131.820312 207.695312 132.558594 L 210.941406 134.835938 L 210.960938 134.851562 C 211.675781 135.363281 212.410156 135.90625 213.089844 136.410156 C 213.449219 136.679688 213.789062 136.933594 214.105469 137.164062 L 214.117188 137.171875 L 312.234375 209.816406 L 312.238281 209.816406 L 318.34375 214.335938 C 318.347656 214.339844 318.355469 214.34375 318.359375 214.347656 C 319.046875 214.851562 319.703125 215.339844 320.335938 215.808594 C 321.714844 216.835938 322.996094 217.789062 324.304688 218.683594 L 324.335938 218.707031 L 330.328125 222.910156 L 336.484375 226.785156 C 339.140625 228.457031 339.941406 231.964844 338.269531 234.625 C 336.597656 237.28125 333.09375 238.082031 330.433594 236.410156 L 324.035156 232.382812 L 317.871094 228.058594 C 316.371094 227.03125 314.796875 225.859375 313.339844 224.777344 C 312.746094 224.335938 312.171875 223.910156 311.632812 223.511719 L 311.621094 223.503906 L 305.476562 218.957031 L 231.894531 164.480469 L 207.386719 146.335938 C 207.382812 146.332031 207.378906 146.332031 207.378906 146.328125 C 206.941406 146.011719 206.554688 145.71875 206.179688 145.441406 C 205.574219 144.992188 205.011719 144.574219 204.371094 144.117188 L 201.078125 141.800781 L 201.035156 141.769531 C 200.363281 141.277344 199.691406 140.855469 198.84375 140.320312 C 198.59375 140.164062 198.328125 139.996094 198.039062 139.8125 C 197.460938 139.457031 197.011719 139.167969 196.613281 138.910156 C 196.003906 138.523438 195.519531 138.210938 194.894531 137.863281 L 194.863281 137.847656 C 194.46875 137.625 194.085938 137.40625 193.710938 137.191406 C 191.765625 136.085938 190.019531 135.09375 188.195312 134.21875 L 188.097656 134.171875 L 188 134.121094 C 186.226562 133.183594 184.410156 132.378906 182.390625 131.480469 C 182.003906 131.308594 181.605469 131.132812 181.199219 130.949219 C 176.417969 128.984375 171.71875 127.226562 166.957031 125.941406 L 166.910156 125.929688 L 165.066406 125.394531 L 163.265625 124.957031 L 159.535156 124.0625 L 155.777344 123.339844 C 155.371094 123.261719 155.09375 123.207031 154.871094 123.164062 C 154.570312 123.101562 154.359375 123.0625 154.050781 123.015625 L 154.046875 123.015625 L 152.0625 122.722656 Z M 152.042969 122.722656 "/>
<path style=" stroke:none;fill-rule:evenodd;fill:rgb(56.470588%,38.823529%,80.392157%);fill-opacity:1;" d="M 276.242188 195.652344 C 277.234375 194.320312 279.113281 194.046875 280.445312 195.039062 L 308.433594 215.925781 L 311.90625 218.515625 L 315.511719 221.078125 C 316.191406 221.554688 316.847656 222.019531 317.492188 222.476562 C 319.269531 223.742188 320.941406 224.933594 322.734375 226.015625 L 322.761719 226.035156 L 328.480469 229.65625 L 328.496094 229.667969 C 328.832031 229.882812 329.105469 230.035156 329.449219 230.226562 C 329.683594 230.355469 329.945312 230.5 330.285156 230.699219 C 331.222656 231.222656 332.132812 231.738281 333.035156 232.25 C 334.703125 233.199219 336.332031 234.128906 338.019531 235.027344 C 358.808594 246.003906 381.601562 253.046875 404.871094 255.835938 C 406.519531 256.035156 407.695312 257.53125 407.496094 259.179688 C 407.300781 260.828125 405.804688 262.003906 404.15625 261.804688 C 380.167969 258.929688 356.664062 251.667969 335.210938 240.339844 L 335.203125 240.339844 L 335.199219 240.335938 C 333.445312 239.398438 331.683594 238.398438 329.960938 237.417969 C 329.070312 236.914062 328.191406 236.414062 327.332031 235.933594 L 327.308594 235.917969 L 327.285156 235.90625 C 327.160156 235.832031 326.992188 235.738281 326.800781 235.632812 C 326.335938 235.375 325.726562 235.035156 325.242188 234.71875 L 319.601562 231.144531 C 317.609375 229.941406 315.675781 228.566406 313.855469 227.269531 C 313.246094 226.835938 312.648438 226.410156 312.066406 226.003906 L 312.054688 225.996094 L 308.371094 223.375 L 304.84375 220.746094 L 276.855469 199.859375 C 275.523438 198.867188 275.25 196.984375 276.242188 195.652344 Z M 276.242188 195.652344 "/>
<path style=" stroke:none;fill-rule:nonzero;fill:rgb(100%,49.803922%,25.490196%);fill-opacity:1;" d="M 581.222656 181.34375 L 644.550781 96.433594 C 645.554688 94.027344 648.472656 94.261719 649.558594 94.679688 C 651.5625 95.882812 650.394531 98.351562 649.558594 99.4375 L 588.484375 182.09375 C 574.867188 198.925781 564.289062 208.980469 560.699219 211.652344 C 559.863281 212.320312 557.945312 214.65625 543.425781 224.175781 C 531.097656 232.257812 515.308594 240.707031 508.632812 243.460938 C 503.226562 246.265625 501.375 244.628906 501.125 243.460938 C 499.921875 240.457031 503.792969 238.535156 505.878906 237.949219 L 513.640625 234.445312 C 543.425781 219.414062 550.851562 211.816406 561.699219 202.632812 C 565.105469 200.230469 576.132812 187.4375 581.222656 181.34375 Z M 581.222656 181.34375 "/>
</g>
</svg>
