<svg width="24" height="25" viewBox="0 0 24 25" fill="none" xmlns="http://www.w3.org/2000/svg">
<path fill-rule="evenodd" clip-rule="evenodd" d="M9 7.02124C9 5.36724 10.346 4.02124 12 4.02124C13.654 4.02124 15 5.36724 15 7.02124V8.50024C15 9.97624 14.267 13.0222 12 13.0222C9.733 13.0222 9 9.97624 9 8.50024V7.02124ZM8 8.50024C8 10.7932 9.241 14.0222 12 14.0222C14.759 14.0222 16 10.7932 16 8.50024V7.02124C16 4.81524 14.206 3.02124 12 3.02124C9.794 3.02124 8 4.81524 8 7.02124V8.50024ZM20 19.5212V20.0212H4V19.5212C4 17.5262 5.332 15.7692 7.216 15.2082C8.185 16.9302 10.02 18.0212 12 18.0212C13.98 18.0212 15.815 16.9302 16.784 15.2082C18.668 15.7692 20 17.5262 20 19.5212ZM3 21.0212H21V19.5212C21 16.9282 19.159 14.6642 16.622 14.1372L16.235 14.0572L16.067 14.4152C15.328 15.9982 13.731 17.0212 12 17.0212C10.269 17.0212 8.672 15.9982 7.933 14.4152L7.765 14.0572L7.378 14.1372C4.841 14.6642 3 16.9282 3 19.5212V21.0212Z" fill="#2C2A29"/>
</svg>
