<svg viewBox="0 0 600 600" xmlns="http://www.w3.org/2000/svg"><defs><linearGradient x1="34.212%" y1="9.124%" x2="64.331%" y2="93.175%" id="a"><stop stop-color="#192647" stop-opacity=".5" offset="0%"/><stop stop-color="#192647" stop-opacity="0" offset="100%"/></linearGradient><linearGradient x1="100.005%" y1="50.001%" x2=".002%" y2="50.001%" id="b"><stop stop-color="#072146" stop-opacity=".8" offset="0%"/><stop stop-color="#072146" stop-opacity=".1" offset="100%"/></linearGradient><linearGradient x1="11.951%" y1="32.648%" x2="68.297%" y2="63.33%" id="c"><stop stop-color="#FFF" stop-opacity=".4" offset="0%"/><stop stop-color="#ECF7F8" stop-opacity=".1" offset="100%"/></linearGradient></defs><g fill="none" fill-rule="evenodd"><path d="M0 0h600v600H0z"/><path d="M0 0h600v600H0z"/><g fill-rule="nonzero"><path d="M383.14 266.95l-.1-.1-.3-.29a28.912 28.912 0 00-20.2-8.21v-61.82c-.06-52.18-30.72-99.48-78.32-120.84l-.82-.35c-.77-.34-1.55-.68-2.35-1.01L280 73.9l-2.17-.87-1.15-.43c-.69-.26-1.4-.53-2.12-.78l-1.19-.42c-.71-.25-1.43-.49-2.14-.72l-1.17-.39c-.74-.24-1.5-.47-2.26-.68l-1.08-.33c-.86-.25-1.72-.48-2.52-.71l-.81-.23c-1.15-.29-2.3-.58-3.46-.85l-3.37-.73-1.06-.2-2.4-.44-1.26-.21-2.2-.35-1.4-.19-2.14-.28-1.44-.16-2.14-.21-1.45-.14-2.2-.15-1.4-.09c-.81 0-1.61-.08-2.43-.1h-4.82c-73.13-.02-132.46 59.17-132.62 132.3v61.82h-5.05c-16.03 0-29.02 12.99-29.02 29.02v99.8c.03 83.17 62.35 153.14 144.96 162.75 4.02.46 8.09.78 12.2.95h.9c1.93.06 3.87.11 5.83.11h.25c43.16.05 84.59-16.97 115.24-47.36.2-.21.42-.42.63-.62l.49-.5a163.075 163.075 0 0047.53-115.2v-99.92c0-7.68-3.03-15.02-8.42-20.44zm-66.02-8.61H143.07v-61.82c0-48.05 38.94-87.02 86.99-87.05 1.55 0 3.1 0 4.64.13l1.19.1c1.15.08 2.3.15 3.43.28l1.19.15c1.14.14 2.27.28 3.41.47l1 .18c1.19.2 2.37.43 3.55.68l.77.18c1.26.28 2.52.59 3.78.92l.52.15c1.26.37 2.62.77 3.91 1.2l.3.1c1.36.45 2.7.95 4.04 1.46h.11c1.38.54 2.75 1.12 4.1 1.73 31.14 14.11 51.14 45.14 51.12 79.33v61.81z" fill="url(#a)" transform="translate(129 49)"/><path d="M428.45 182.44c0-73.16-59.31-132.47-132.47-132.47s-132.47 59.31-132.47 132.47v61.82h45.48v-61.82c1.29-48.06 41.3-85.97 89.36-84.68 46.24 1.25 83.43 38.44 84.68 84.68v61.82h45.42v-61.82z" fill="#F8CD50"/><path d="M158.46 244.26h269.99c16.03 0 29.02 12.99 29.02 29.02v99.8c0 90.51-73.37 163.89-163.89 163.89h-.26c-90.51-.01-163.87-73.38-163.87-163.89v-99.8c0-16.03 12.99-29.02 29.01-29.02z" fill="#043263"/><path d="M299.45 195.26h-82.93L71.85 459.36a163.306 163.306 0 0092.6 28.6c90.59 0 164.01-73.31 164.01-163.76v-99.92c.01-16.03-12.98-29.02-29.01-29.02z" fill="url(#b)" transform="translate(129 49)"/><path d="M166.98.97C93.84 1.03 34.57 60.31 34.51 133.44v61.82h45.48v-61.82c-.01-48.02 38.91-86.95 86.93-86.95 12.4 0 24.65 2.65 35.94 7.77l21.38-40.21A131.817 131.817 0 00166.98.97z" fill="url(#c)" transform="translate(129 49)"/><g fill="#FFF"><path d="M290.85 377.59c15.91-.11 28.72-13.1 28.61-29.02-.11-15.91-13.1-28.72-29.02-28.61-15.91.11-28.72 13.1-28.61 29.02v.07c.17 15.88 13.14 28.63 29.02 28.54"/><path d="M253.74 433.51v-10.57c0-24.27 14.52-46.26 32.27-46.26h9.66c17.75 0 32.27 21.99 32.27 46.26v10.57h-74.2z"/></g></g></g></svg>