<?xml version="1.0" encoding="utf-8"?>
<!-- Generator: Adobe Illustrator 20.0.0, SVG Export Plug-In . SVG Version: 6.00 Build 0)  -->
<svg version="1.1" id="Capa_1" xmlns="http://www.w3.org/2000/svg" xmlns:xlink="http://www.w3.org/1999/xlink" x="0px" y="0px"
	 viewBox="0 0 198 18" style="enable-background:new 0 0 198 18;" xml:space="preserve">
<style type="text/css">
	.st0{fill:#FFFFFF;}
</style>
<g>
	<g>
		<path class="st0" d="M74.603,5.67l1.04-0.101c0.065,0.348,0.185,0.603,0.377,0.766c0.199,0.165,0.454,0.248,0.781,0.248
			c0.338,0,0.598-0.077,0.776-0.22c0.173-0.147,0.261-0.316,0.261-0.512c0-0.126-0.04-0.234-0.107-0.32
			c-0.074-0.084-0.203-0.162-0.391-0.228c-0.12-0.043-0.411-0.121-0.85-0.231c-0.569-0.142-0.974-0.316-1.208-0.525
			c-0.325-0.291-0.483-0.646-0.483-1.064c0-0.268,0.072-0.522,0.227-0.757c0.154-0.236,0.375-0.41,0.662-0.536
			c0.283-0.123,0.629-0.185,1.04-0.185c0.664,0,1.167,0.145,1.494,0.439c0.338,0.291,0.518,0.681,0.533,1.164l-1.07,0.047
			c-0.043-0.274-0.142-0.466-0.294-0.581c-0.15-0.124-0.37-0.181-0.669-0.181c-0.317,0-0.563,0.061-0.736,0.189
			c-0.111,0.083-0.17,0.193-0.17,0.328c0,0.128,0.06,0.234,0.155,0.324c0.14,0.111,0.468,0.229,0.986,0.35
			c0.521,0.122,0.904,0.249,1.152,0.383c0.254,0.131,0.444,0.307,0.587,0.54c0.143,0.226,0.213,0.507,0.213,0.841
			c0,0.303-0.085,0.587-0.258,0.852c-0.161,0.267-0.402,0.464-0.714,0.591c-0.309,0.127-0.687,0.195-1.147,0.195
			c-0.674,0-1.195-0.156-1.546-0.467C74.883,6.711,74.666,6.261,74.603,5.67z"/>
		<path class="st0" d="M79.796,2.097h1.07v2.867c0,0.455,0.016,0.747,0.033,0.885c0.057,0.216,0.161,0.389,0.334,0.523
			c0.17,0.128,0.407,0.196,0.707,0.196c0.305,0,0.534-0.062,0.686-0.186c0.155-0.127,0.249-0.276,0.278-0.459
			c0.038-0.18,0.051-0.481,0.051-0.899V2.097h1.062v2.781c0,0.634-0.024,1.085-0.08,1.345c-0.063,0.263-0.165,0.485-0.322,0.666
			c-0.154,0.182-0.359,0.324-0.628,0.433c-0.257,0.105-0.593,0.159-1.016,0.159c-0.504,0-0.891-0.063-1.149-0.176
			c-0.26-0.116-0.464-0.268-0.619-0.455c-0.155-0.188-0.251-0.383-0.3-0.588c-0.065-0.304-0.107-0.751-0.107-1.342V2.097z"/>
		<path class="st0" d="M85.145,7.387V2.097h1.716c0.647,0,1.07,0.025,1.269,0.079c0.304,0.08,0.56,0.254,0.761,0.519
			c0.207,0.267,0.31,0.608,0.31,1.032c0,0.323-0.06,0.596-0.174,0.818c-0.122,0.221-0.274,0.397-0.45,0.521
			c-0.188,0.126-0.367,0.21-0.559,0.251c-0.251,0.053-0.623,0.078-1.107,0.078h-0.698v1.992H85.145z M86.213,2.993v1.501h0.583
			c0.425,0,0.703-0.029,0.852-0.082c0.142-0.054,0.25-0.144,0.332-0.261c0.08-0.116,0.119-0.257,0.119-0.41
			c0-0.195-0.059-0.352-0.167-0.479c-0.113-0.124-0.257-0.203-0.426-0.235c-0.133-0.025-0.391-0.034-0.771-0.034H86.213z"/>
		<path class="st0" d="M90.072,7.387l0.003-5.289h3.927v0.896h-2.853v1.172h2.657v0.893h-2.657v1.442h2.953v0.886H90.072z"/>
		<path class="st0" d="M95.016,7.387V2.097h2.246c0.566,0,0.981,0.047,1.239,0.143c0.252,0.094,0.459,0.262,0.604,0.505
			c0.16,0.245,0.242,0.525,0.238,0.834c0,0.402-0.117,0.731-0.351,0.988c-0.236,0.256-0.581,0.42-1.04,0.485
			c0.226,0.138,0.423,0.283,0.565,0.444c0.158,0.166,0.354,0.449,0.604,0.859l0.654,1.031h-1.282l-0.772-1.149
			c-0.276-0.41-0.459-0.669-0.558-0.777c-0.103-0.107-0.214-0.178-0.325-0.221C96.724,5.2,96.546,5.182,96.3,5.182h-0.222v2.205
			H95.016z M96.079,4.334h0.793c0.51,0,0.832-0.018,0.962-0.064c0.132-0.04,0.23-0.119,0.307-0.224
			c0.065-0.106,0.102-0.238,0.102-0.398c0-0.175-0.053-0.324-0.145-0.432c-0.092-0.11-0.226-0.176-0.398-0.207
			C97.61,3,97.354,2.993,96.918,2.993h-0.839V4.334z"/>
		<path class="st0" d="M100.322,7.387V2.097h1.063v5.289H100.322z"/>
		<path class="st0" d="M102.414,7.387V2.097h1.045l2.164,3.536V2.097h0.989v5.289h-1.066l-2.134-3.447v3.447H102.414z"/>
		<path class="st0" d="M108.936,7.387l0.001-4.393h-1.572V2.097h4.204v0.896h-1.561v4.393H108.936z"/>
		<path class="st0" d="M112.262,7.387V2.097h3.92v0.896h-2.849v1.172h2.658v0.893h-2.658v1.442h2.954v0.886H112.262z"/>
		<path class="st0" d="M117.203,7.387V2.097h1.046l2.162,3.536V2.097h0.994v5.289h-1.072l-2.136-3.447v3.447H117.203z"/>
		<path class="st0" d="M122.534,2.097h1.952c0.44,0,0.775,0.032,1.007,0.101c0.307,0.092,0.584,0.254,0.793,0.489
			c0.229,0.231,0.4,0.519,0.513,0.859c0.113,0.337,0.171,0.755,0.171,1.25c0,0.438-0.049,0.81-0.166,1.126
			c-0.129,0.386-0.316,0.696-0.565,0.935c-0.178,0.18-0.439,0.319-0.753,0.419c-0.228,0.077-0.546,0.11-0.95,0.11h-2.002V2.097z
			 M123.604,2.993v3.507h0.791c0.302,0,0.515-0.018,0.644-0.051c0.184-0.047,0.328-0.118,0.44-0.221
			c0.113-0.102,0.207-0.273,0.28-0.513c0.069-0.236,0.108-0.558,0.108-0.966c0-0.415-0.039-0.724-0.108-0.945
			c-0.074-0.219-0.175-0.391-0.299-0.515c-0.14-0.121-0.3-0.201-0.504-0.246c-0.143-0.033-0.437-0.05-0.874-0.05H123.604z"/>
		<path class="st0" d="M127.877,7.387V2.097h3.928v0.896h-2.858v1.172h2.657v0.893h-2.657v1.442h2.959v0.886H127.877z"/>
		<path class="st0" d="M132.827,7.387V2.097h1.038l2.159,3.536l0.004-3.536h0.997v5.289h-1.081l-2.13-3.447v3.447H132.827z"/>
		<path class="st0" d="M141.538,5.443l1.038,0.33c-0.163,0.577-0.421,1.007-0.793,1.284c-0.373,0.282-0.837,0.424-1.403,0.424
			c-0.706,0-1.286-0.239-1.739-0.719c-0.448-0.484-0.679-1.14-0.679-1.972c0-0.882,0.23-1.565,0.679-2.054
			c0.463-0.487,1.051-0.731,1.801-0.731c0.644,0,1.167,0.192,1.577,0.574c0.235,0.227,0.422,0.551,0.534,0.974l-1.051,0.255
			c-0.065-0.276-0.193-0.49-0.396-0.65c-0.201-0.159-0.435-0.237-0.725-0.237c-0.391,0-0.707,0.138-0.952,0.422
			c-0.24,0.279-0.368,0.737-0.368,1.367c0,0.67,0.128,1.143,0.361,1.431c0.242,0.284,0.554,0.427,0.941,0.427
			c0.286,0,0.529-0.09,0.728-0.274C141.299,6.117,141.45,5.835,141.538,5.443z"/>
		<path class="st0" d="M143.454,7.387V2.097h1.074v5.289H143.454z"/>
		<path class="st0" d="M150.327,7.387h-1.177l-0.456-1.197h-2.116l-0.441,1.197h-1.132l2.064-5.289h1.132L150.327,7.387z
			 M148.348,5.295l-0.725-1.963l-0.721,1.963H148.348z"/>
		<path class="st0" d="M152.672,7.387V2.097h3.624v0.896h-2.555v1.253h2.211v0.898h-2.211v2.243H152.672z"/>
		<path class="st0" d="M157.152,7.387l0.003-5.289h1.064v5.289H157.152z"/>
		<path class="st0" d="M159.251,7.387V2.097h1.038l2.161,3.536V2.097h1.004v5.289h-1.08l-2.135-3.447v3.447H159.251z"/>
		<path class="st0" d="M169.352,7.387h-1.161l-0.462-1.197h-2.114l-0.442,1.197h-1.135l2.062-5.289h1.132L169.352,7.387z
			 M167.384,5.295l-0.735-1.963l-0.708,1.963H167.384z"/>
		<path class="st0" d="M169.925,7.387V2.097h1.048l2.161,3.536V2.097h0.992v5.289h-1.069l-2.135-3.447v3.447H169.925z"/>
		<path class="st0" d="M178.647,5.443l1.035,0.33c-0.162,0.577-0.427,1.007-0.788,1.284c-0.377,0.282-0.841,0.424-1.414,0.424
			c-0.701,0-1.277-0.239-1.724-0.719c-0.454-0.484-0.688-1.14-0.688-1.972c0-0.882,0.234-1.565,0.688-2.054
			c0.455-0.487,1.047-0.731,1.798-0.731c0.644,0,1.171,0.192,1.574,0.574c0.24,0.227,0.424,0.551,0.547,0.974l-1.066,0.255
			c-0.062-0.276-0.191-0.49-0.392-0.65c-0.203-0.159-0.439-0.237-0.722-0.237c-0.395,0-0.71,0.138-0.952,0.422
			c-0.247,0.279-0.369,0.737-0.369,1.367c0,0.67,0.116,1.143,0.356,1.431c0.249,0.284,0.553,0.427,0.943,0.427
			c0.283,0,0.528-0.09,0.726-0.274C178.409,6.117,178.555,5.835,178.647,5.443z"/>
		<path class="st0" d="M180.568,7.387V2.097h1.066v5.289H180.568z"/>
		<path class="st0" d="M182.651,7.387V2.097h3.926v0.896h-2.857v1.172h2.661v0.893h-2.661v1.442h2.963v0.886H182.651z"/>
		<path class="st0" d="M187.591,7.387V2.097h2.249c0.568,0,0.977,0.047,1.231,0.143c0.259,0.094,0.469,0.262,0.616,0.505
			c0.155,0.245,0.232,0.525,0.232,0.834c0,0.402-0.117,0.731-0.352,0.988c-0.228,0.256-0.577,0.42-1.045,0.485
			c0.229,0.138,0.423,0.283,0.57,0.444c0.155,0.166,0.359,0.449,0.612,0.859l0.644,1.031h-1.276l-0.77-1.149
			c-0.277-0.41-0.469-0.669-0.567-0.777c-0.106-0.107-0.206-0.178-0.316-0.221c-0.113-0.04-0.294-0.058-0.55-0.058h-0.206v2.205
			H187.591z M188.663,4.334h0.786c0.512,0,0.835-0.018,0.961-0.064c0.127-0.04,0.227-0.119,0.297-0.224
			c0.069-0.106,0.115-0.238,0.115-0.398c0-0.175-0.05-0.324-0.142-0.432c-0.098-0.11-0.232-0.176-0.404-0.207
			c-0.092-0.01-0.348-0.017-0.776-0.017h-0.836V4.334z"/>
		<path class="st0" d="M197.699,7.387h-1.16l-0.465-1.197h-2.108l-0.439,1.197h-1.134l2.054-5.289h1.13L197.699,7.387z
			 M195.735,5.295l-0.727-1.963l-0.721,1.963H195.735z"/>
		<path class="st0" d="M110.274,10.61h1.955c0.439,0,0.772,0.032,1.007,0.098c0.312,0.092,0.581,0.257,0.801,0.489
			c0.214,0.234,0.382,0.519,0.502,0.858c0.113,0.338,0.173,0.755,0.173,1.254c0,0.432-0.055,0.807-0.157,1.125
			c-0.141,0.386-0.328,0.695-0.578,0.933c-0.175,0.186-0.429,0.322-0.74,0.423c-0.237,0.078-0.552,0.112-0.946,0.112h-2.016V10.61z
			 M111.344,11.508v3.503h0.802c0.291,0,0.508-0.016,0.646-0.053c0.174-0.042,0.316-0.113,0.429-0.217
			c0.112-0.105,0.206-0.276,0.28-0.51c0.069-0.241,0.11-0.56,0.11-0.974c0-0.409-0.041-0.723-0.11-0.943
			c-0.073-0.217-0.171-0.389-0.3-0.513c-0.138-0.119-0.296-0.204-0.498-0.244c-0.149-0.039-0.442-0.049-0.88-0.049H111.344z"/>
		<path class="st0" d="M115.618,15.901V10.61h3.929v0.898h-2.863v1.168h2.661v0.895h-2.661v1.44h2.963v0.891H115.618z"/>
		<path class="st0" d="M125.998,13.957l1.029,0.33c-0.159,0.574-0.418,1.005-0.787,1.285c-0.371,0.28-0.836,0.421-1.412,0.421
			c-0.703,0-1.274-0.243-1.738-0.724c-0.446-0.48-0.669-1.135-0.669-1.969c0-0.878,0.227-1.561,0.683-2.049
			c0.45-0.49,1.05-0.732,1.795-0.732c0.646,0,1.168,0.188,1.575,0.572c0.234,0.227,0.418,0.554,0.54,0.976l-1.055,0.253
			c-0.068-0.273-0.192-0.494-0.397-0.652c-0.194-0.157-0.432-0.239-0.719-0.239c-0.4,0-0.712,0.142-0.964,0.423
			c-0.244,0.284-0.352,0.738-0.352,1.369c0,0.67,0.109,1.146,0.352,1.433c0.246,0.284,0.551,0.421,0.941,0.421
			c0.277,0,0.522-0.091,0.733-0.268C125.76,14.626,125.902,14.344,125.998,13.957z"/>
		<path class="st0" d="M127.73,13.287c0-0.536,0.079-0.991,0.243-1.355c0.12-0.273,0.276-0.513,0.495-0.729
			c0.205-0.214,0.427-0.369,0.683-0.474c0.325-0.142,0.702-0.21,1.139-0.21c0.775,0,1.404,0.242,1.876,0.724
			c0.46,0.485,0.698,1.157,0.698,2.021c0,0.851-0.237,1.523-0.698,2.003c-0.46,0.482-1.084,0.725-1.866,0.725
			c-0.787,0-1.412-0.243-1.877-0.724C127.966,14.79,127.73,14.131,127.73,13.287z M128.832,13.25c0,0.603,0.138,1.053,0.412,1.367
			c0.277,0.307,0.627,0.46,1.057,0.46c0.42,0,0.773-0.152,1.048-0.459c0.271-0.306,0.413-0.765,0.413-1.382
			c0-0.607-0.135-1.058-0.397-1.355c-0.267-0.301-0.626-0.451-1.064-0.451c-0.447,0-0.795,0.156-1.066,0.456
			C128.97,12.186,128.832,12.641,128.832,13.25z"/>
		<path class="st0" d="M133.727,15.901v-5.25h1.067v4.36h2.661v0.891H133.727z"/>
		<path class="st0" d="M137.996,13.287c0-0.536,0.085-0.991,0.248-1.355c0.12-0.273,0.283-0.513,0.492-0.729
			c0.21-0.214,0.438-0.369,0.683-0.474c0.331-0.142,0.709-0.21,1.143-0.21c0.778,0,1.411,0.242,1.871,0.724
			c0.467,0.485,0.704,1.157,0.704,2.021c0,0.851-0.238,1.523-0.695,2.003c-0.467,0.482-1.094,0.725-1.867,0.725
			c-0.789,0-1.415-0.243-1.877-0.724C138.233,14.79,137.996,14.131,137.996,13.287z M139.104,13.25c0,0.603,0.133,1.053,0.413,1.367
			c0.268,0.307,0.632,0.46,1.055,0.46c0.422,0,0.772-0.152,1.042-0.459c0.281-0.306,0.408-0.765,0.408-1.382
			c0-0.607-0.127-1.058-0.394-1.355c-0.267-0.301-0.62-0.451-1.057-0.451c-0.439,0-0.797,0.156-1.07,0.456
			C139.237,12.186,139.104,12.641,139.104,13.25z"/>
		<path class="st0" d="M143.953,15.901V10.61h1.595l0.959,3.607l0.957-3.607h1.605v5.292h-0.993v-4.166l-1.05,4.166h-1.028
			l-1.049-4.166v4.166H143.953z"/>
		<path class="st0" d="M150.127,10.61h2.124c0.413,0,0.729,0.017,0.937,0.05c0.2,0.034,0.386,0.11,0.543,0.22
			c0.169,0.111,0.301,0.259,0.409,0.444c0.109,0.184,0.171,0.39,0.171,0.616c0,0.251-0.078,0.475-0.206,0.687
			c-0.135,0.205-0.314,0.362-0.546,0.465c0.324,0.092,0.574,0.251,0.752,0.479c0.172,0.224,0.255,0.49,0.255,0.798
			c0,0.242-0.062,0.472-0.164,0.703c-0.118,0.225-0.27,0.405-0.46,0.544c-0.194,0.135-0.435,0.221-0.718,0.251
			c-0.176,0.019-0.608,0.033-1.291,0.034h-1.807V10.61z M151.196,11.494v1.22h0.703c0.415,0,0.675-0.007,0.779-0.018
			c0.184-0.024,0.326-0.085,0.434-0.19c0.106-0.105,0.157-0.242,0.157-0.413c0-0.166-0.051-0.296-0.136-0.397
			c-0.091-0.105-0.233-0.165-0.398-0.186c-0.11-0.015-0.419-0.015-0.922-0.015H151.196z M151.196,13.594v1.417h0.994
			c0.384,0,0.622-0.012,0.734-0.032c0.158-0.03,0.285-0.102,0.386-0.213c0.099-0.111,0.146-0.262,0.146-0.448
			c0-0.158-0.031-0.293-0.109-0.406c-0.079-0.11-0.186-0.188-0.337-0.241c-0.146-0.051-0.461-0.076-0.95-0.076H151.196z"/>
		<path class="st0" d="M155.441,15.901V10.61h1.062v5.292H155.441z"/>
		<path class="st0" d="M162.294,15.901h-1.156l-0.467-1.199h-2.115l-0.439,1.199h-1.133l2.066-5.292h1.127L162.294,15.901z
			 M160.321,13.807l-0.72-1.965l-0.715,1.965H160.321z"/>
	</g>
	<g>
		<g>
			<path class="st0" d="M5.999,12.452L3.827,6.361h1.337l1.532,4.505l1.497-4.505h1.303L7.31,12.452H5.999z"/>
			<path class="st0" d="M13.286,12.452V6.361h1.234v6.091H13.286z"/>
			<path class="st0" d="M21.723,10.212V9.188h2.65v2.425c-0.249,0.25-0.632,0.469-1.12,0.66c-0.488,0.189-0.981,0.283-1.483,0.283
				c-0.634,0-1.196-0.132-1.668-0.402c-0.473-0.263-0.832-0.646-1.065-1.146c-0.238-0.497-0.362-1.039-0.362-1.623
				c0-0.636,0.139-1.195,0.402-1.691c0.268-0.49,0.652-0.872,1.167-1.135c0.39-0.203,0.879-0.304,1.46-0.304
				c0.759,0,1.342,0.159,1.77,0.476c0.423,0.318,0.702,0.759,0.821,1.316l-1.218,0.231c-0.084-0.301-0.251-0.537-0.487-0.71
				c-0.239-0.175-0.531-0.263-0.886-0.263c-0.533,0-0.96,0.174-1.278,0.514c-0.323,0.338-0.481,0.845-0.481,1.516
				c0,0.725,0.163,1.263,0.481,1.629c0.322,0.358,0.745,0.543,1.266,0.543c0.261,0,0.519-0.053,0.774-0.155
				c0.261-0.101,0.482-0.222,0.673-0.367v-0.773H21.723z"/>
			<path class="st0" d="M28.674,12.452V6.361h1.229v6.091H28.674z"/>
			<path class="st0" d="M34.311,12.452V6.411h1.228v5.014h3.056v1.026H34.311z"/>
			<path class="st0" d="M48.172,12.452h-1.344l-0.525-1.383h-2.44l-0.501,1.383h-1.305l2.374-6.091h1.305L48.172,12.452z
				 M45.906,10.039l-0.84-2.257l-0.822,2.257H45.906z"/>
			<path class="st0" d="M52.019,6.361h2.247c0.508,0,0.897,0.039,1.166,0.113c0.347,0.103,0.658,0.295,0.912,0.563
				c0.252,0.268,0.453,0.598,0.58,0.984c0.141,0.394,0.205,0.873,0.205,1.442c0,0.502-0.063,0.936-0.186,1.298
				c-0.162,0.442-0.375,0.802-0.658,1.077c-0.212,0.209-0.497,0.369-0.864,0.482c-0.271,0.089-0.633,0.131-1.089,0.131h-2.314V6.361
				z M53.247,7.387v4.039h0.922c0.347,0,0.589-0.021,0.745-0.058c0.199-0.048,0.365-0.133,0.492-0.253
				c0.132-0.121,0.246-0.314,0.325-0.587c0.084-0.276,0.12-0.645,0.12-1.117c0-0.472-0.036-0.83-0.12-1.087
				c-0.079-0.251-0.205-0.446-0.352-0.585c-0.146-0.145-0.338-0.242-0.565-0.288c-0.171-0.039-0.512-0.064-1.014-0.064H53.247z"/>
			<path class="st0" d="M61.118,9.446c0-0.625,0.094-1.143,0.279-1.565c0.143-0.308,0.332-0.589,0.569-0.834
				c0.238-0.249,0.503-0.43,0.788-0.55c0.376-0.161,0.815-0.242,1.305-0.242c0.908,0,1.625,0.28,2.165,0.838
				c0.533,0.554,0.807,1.327,0.807,2.321c0,0.986-0.267,1.75-0.803,2.31c-0.533,0.554-1.247,0.831-2.142,0.831
				c-0.909,0-1.631-0.277-2.165-0.827C61.394,11.172,61.118,10.414,61.118,9.446z M62.388,9.4c0,0.691,0.158,1.214,0.478,1.571
				c0.314,0.356,0.723,0.536,1.211,0.536c0.497,0,0.895-0.179,1.209-0.533c0.314-0.355,0.469-0.883,0.469-1.59
				c0-0.7-0.154-1.219-0.456-1.564c-0.305-0.341-0.71-0.515-1.222-0.515c-0.504,0-0.914,0.176-1.219,0.523
				C62.546,8.178,62.388,8.7,62.388,9.4z"/>
		</g>
		<rect x="0.304" class="st0" width="70.243" height="1.171"/>
		<rect x="0.301" y="16.826" class="st0" width="70.246" height="1.174"/>
	</g>
</g>
</svg>
