<svg id="Capa_1" data-name="Capa 1" xmlns="http://www.w3.org/2000/svg" xmlns:xlink="http://www.w3.org/1999/xlink" viewBox="0 0 600 600"><defs><style>.cls-1{fill:url(#Degradado_sin_nombre);}.cls-2{fill:none;}.cls-3{fill:#043263;}.cls-4{fill:#49a5e6;}.cls-5{opacity:0.5;isolation:isolate;fill:url(#Degradado_sin_nombre_2);}.cls-6{fill:#153260;}.cls-7,.cls-8{fill:#69c8ca;}.cls-8{fill-rule:evenodd;}</style><linearGradient id="Degradado_sin_nombre" x1="247.58" y1="8.09" x2="460.72" y2="408.96" gradientTransform="translate(0 144)" gradientUnits="userSpaceOnUse"><stop offset="0" stop-color="#192647"/><stop offset="0" stop-color="#192647" stop-opacity="0.5"/><stop offset="1" stop-color="#192647" stop-opacity="0"/></linearGradient><linearGradient id="Degradado_sin_nombre_2" x1="215.96" y1="71.76" x2="370.22" y2="226.02" gradientTransform="translate(0 144)" gradientUnits="userSpaceOnUse"><stop offset="0" stop-color="#fff" stop-opacity="0.5"/><stop offset="1" stop-color="#ecf7f8" stop-opacity="0.1"/></linearGradient></defs><title>access_method_dark</title><path class="cls-1" d="M261.1,147.85H447.2a22.32,22.32,0,0,1,22.3,22.31V534.89a22.32,22.32,0,0,1-22.3,22.31H261.1a22.32,22.32,0,0,1-22.3-22.31V170.16A22.32,22.32,0,0,1,261.1,147.85Z"/><rect class="cls-2" width="600" height="600"/><rect class="cls-2" width="600" height="600"/><path class="cls-3" d="M207.5,96.85H392.4A22.13,22.13,0,0,1,414.5,119V481a22.12,22.12,0,0,1-22.1,22.1H207.5A22.12,22.12,0,0,1,185.4,481V119a22.13,22.13,0,0,1,22.06-22.2h0Z"/><rect class="cls-4" x="185.4" y="147.85" width="229.2" height="304.3"/><polygon class="cls-5" points="185.7 148.05 185.7 451.95 302.5 452.15 414.5 245.15 414.5 147.85 185.7 148.05"/><circle class="cls-6" cx="200" cy="312.37" r="45.34"/><circle class="cls-6" cx="299.98" cy="312.37" r="45.34"/><circle class="cls-6" cx="399.95" cy="312.37" r="45.34"/><path class="cls-7" d="M194,294.36H183.8a1.82,1.82,0,0,0-1.8,1.8v10.21h3v-8.11a.92.92,0,0,1,.9-.9H194Z"/><path class="cls-7" d="M218,306.37V296.16a1.82,1.82,0,0,0-1.8-1.8H206v3h8.1a.92.92,0,0,1,.9.9v8.11Z"/><path class="cls-7" d="M206,330.37h10.2a1.82,1.82,0,0,0,1.8-1.8v-10.2h-3v8.1a.9.9,0,0,1-.9.9H206Z"/><path class="cls-7" d="M182,318.37v10.2a1.82,1.82,0,0,0,1.8,1.8H194v-3h-8.1a.9.9,0,0,1-.9-.9v-8.1Z"/><path class="cls-7" d="M210.5,312.37A10.51,10.51,0,1,0,200,322.87h0a10.49,10.49,0,0,0,10.5-10.48v0m-6.75-4.5a1.5,1.5,0,1,1-1.5,1.5,1.5,1.5,0,0,1,1.5-1.5m-7.51,0a1.5,1.5,0,1,1-1.5,1.5,1.5,1.5,0,0,1,1.5-1.5m9.76,6.9a6.31,6.31,0,0,1-12,0,.58.58,0,0,1,.4-.73h11a.58.58,0,0,1,.61.55v.2"/><path class="cls-7" d="M412.15,307.24H410.9v-4.71a11,11,0,0,0-21.91,0v4.71h-1.25a1.88,1.88,0,0,0-1.88,1.88h0v18.15a1.89,1.89,0,0,0,1.88,1.88h24.41a1.88,1.88,0,0,0,1.88-1.88h0V309.12a1.89,1.89,0,0,0-1.88-1.88m-9.07,12.82h-9.39v-3.13h12.52Zm4.69-12.82H392.12v-4.71a7.83,7.83,0,0,1,15.65,0Z"/><path class="cls-8" d="M298.34,307.46a1.64,1.64,0,0,1,3.27-.26,1.13,1.13,0,0,1,0,.26v9.82a1.64,1.64,0,0,1-3.27,0Z"/><path class="cls-8" d="M300,299.28a8.18,8.18,0,0,0-8.18,8.18v9.82a8.18,8.18,0,0,0,16.36,0v-9.82a8.18,8.18,0,0,0-8.18-8.18m4.9,18a4.91,4.91,0,0,1-9.81,0v-9.82a4.91,4.91,0,1,1,9.81-.44,3.23,3.23,0,0,1,0,.44Z"/><path class="cls-8" d="M314.7,315.64v1.64a14.73,14.73,0,0,1-29.15,3l3-3a11.46,11.46,0,0,0,22.91,0v-4.91Z"/><path class="cls-8" d="M314.7,310.73v-3.25a14.73,14.73,0,1,0-29.45-.77c0,.26,0,.51,0,.77v8.16l3.27-3.27v-4.91a11.46,11.46,0,0,1,22.91,0Z"/></svg>