<svg xmlns="http://www.w3.org/2000/svg" width="192.094" height="73.305" viewBox="0 0 192.094 73.305"><defs><style>.a{fill:#019df4;}.b{fill:#5fb030;}.c{fill:#0b2739;}.d{fill:#3c7521;}.e{fill:#5cb615;}.f{opacity:0.2;}.g{fill:#000100;}.h{fill:#193042;}.i{fill:#21455d;}.i,.j,.k,.m{fill-rule:evenodd;}.j{fill:#c9dde9;}.k,.s{fill:#0b2738;}.l{opacity:0.4;}.m{fill:#fff;}.n{fill:#eb624b;}.o{fill:#3e96d2;}.p{opacity:0.6;}.q{fill:#f4f4f4;}.r{opacity:0.07;}.t{fill:#983230;}.u{fill:#313235;}.v{fill:#e9eae7;}.w{fill:#51545b;}.x{fill:#3991cf;}.y{fill:#3b92cf;}.z{fill:#85878b;}.aa{fill:#e65d4d;}.ab{fill:#bbd8a1;}</style></defs><g transform="translate(46.16 -0.329)"><path class="a" d="M17.707,21.024s3.037-5.065,1.858-13.866c0,0-5.263,3.937-3.606,16.462l1.748-2.6Zm-6.8,10.6A32.327,32.327,0,0,0,9.82,13.39s-4.8,3.266.018,19.623Z" transform="translate(103.038 6.212)"/><path class="b" d="M5.732,41.09S7.34,29.8,1.187,20.048c0,0-4.157,14.115,4.545,21.04" transform="translate(103.038 6.212)"/><path class="a" d="M5.77,40.29s4.274-5.966,19.347-8.21c0,0-6.991,7.018-19.886,9l.538-.785Z" transform="translate(103.038 6.212)"/><path class="a" d="M22.106,14.978c-1.988,2.5-3.887,5.05-5.737,7.638s-3.628,5.222-5.342,7.891S7.7,35.9,6.151,38.667c-1.52,2.772-2.92,5.608-4.172,8.5a.456.456,0,0,0,.268.615A.524.524,0,0,0,2.9,47.5c.007,0,.005-.006.005-.006l.005-.008c1.18-2.876,2.516-5.7,3.976-8.485,1.483-2.769,3.042-5.5,4.7-8.194s3.387-5.33,5.182-7.945,3.644-5.193,5.581-7.715a.135.135,0,0,0-.023-.2.172.172,0,0,0-.215.034" transform="translate(103.038 6.212)"/><path class="a" d="M21.931,15.509S31.786,9.919,33.688.31a16.523,16.523,0,0,0-11.757,15.2m9.306-.4s-7,.72-14.5,7.532l-1.412,2.313s8.4-1.4,15.915-9.845m-20.823,16.9s3.616-5.5,17.3-7.14A41.83,41.83,0,0,1,9.9,33.33l.515-1.317Z" transform="translate(103.038 6.212)"/><path class="c" d="M.241,24.989s13.723-4.642,20.424-4.668,13.2,4.849,13.54,8.1a3.541,3.541,0,0,1-4.645-.313c-2.2-2.188-2.409-.073-2.988.268s-3.522.236-4.684-1.012-1.652-2.56-4.73-.99-3.4-.068-5.414-.708S3.54,23.83.24,24.99" transform="translate(102.673 31.058)"/><path class="d" d="M43.26,2.563s-5.252-5.65-12.52,1.071c0,0-4.228-2.177-6.552,1.12S22.774,7.8,22.774,7.8s-5.73.113-8.294,5.051S7.246,27.915,7.246,27.915s13.782-3.563,16.166-5.09c3.069-1.966,5.738-3.26,5.818-6.706,2.907,1.313,5.452-.407,5.922-3.5s.31-2.985,2.643-3.49c5.048-1.09,5.466-6.569,5.466-6.569" transform="translate(102.673 31.058)"/><path class="e" d="M7.562,27.618a.292.292,0,0,1-.05-.4C16.639,16.839,36.249,4.454,36.446,4.328a.294.294,0,0,1,.388.115.275.275,0,0,1-.044.387c-.2.121-19.754,12.477-28.842,22.808a.265.265,0,0,1-.386-.019h0" transform="translate(102.673 31.058)"/><g class="f"><g transform="translate(0 63.942)"><path class="g" d="M-45.15-3.453C-27.687-.033,4.96-.459,17.623.072a.422.422,0,0,1,.017.835c-3.55.324-7.5.753-11.318,1.307-2.669.385-2.64,4.673.04,4.923,41.435,3.913,77.15,2.968,119.13-.38,2.112-.17,2.128-3.593.03-3.934C109.931.295,82.538.867,54.161-1.176a.54.54,0,0,1,0-1.07C59.5-2.534,67.006-2.8,73.2-3.968a1.555,1.555,0,0,0-.014-3.011c-25.608-3.678-83.172-3.793-118.568,1.3-1.173.172-.953,2,.233,2.228"/></g></g><path class="h" d="M71.36,44.632a3.168,3.168,0,0,1,2.367-1.687c1.562-.084,15.384,0,15.384,0l-1.282,1.688-16.47,0Z" transform="translate(8.77)"/><path class="i" d="M103.605,58.288,2.013,58.28A1.721,1.721,0,0,1,.292,56.558L.3,2.051A1.723,1.723,0,0,1,2.018.329L103.61.338a1.72,1.72,0,0,1,1.72,1.721l0,54.508a1.721,1.721,0,0,1-1.72,1.721" transform="translate(8.77)"/><path class="j" d="M102.555,4.431l-.145,50.042a1.109,1.109,0,0,1-1.113,1.106L4.173,55.3a1.11,1.11,0,0,1-1.106-1.112L3.214,4.142A1.109,1.109,0,0,1,4.325,3.037l97.125.283a1.109,1.109,0,0,1,1.105,1.111" transform="translate(8.77)"/><path class="k" d="M42.384,58.022h20.85v5.611H42.384Z" transform="translate(8.77)"/><path class="k" d="M67.037,65.121l-28.458,0a.735.735,0,0,1-.734-.735v-.019a.734.734,0,0,1,.734-.733l28.458,0a.734.734,0,0,1,.734.733v.02a.734.734,0,0,1-.734.734" transform="translate(8.77)"/><g class="l" transform="translate(17.174 2.923)"><path class="m" d="M72.508.257,15.583,52.388H.338L57.262.256Z"/><path class="m" d="M94.08.258V3.2L40.359,52.514H32.735L89.66.259Z"/></g><path class="i" d="M98.433,56.95a.642.642,0,1,1-.641-.642.641.641,0,0,1,.641.642" transform="translate(8.77)"/><path class="n" d="M24.88,9.439h0l-1.65.665a.066.066,0,0,1-.069-.034A.046.046,0,0,1,23.195,10l1.65-.666a.059.059,0,0,1,.068.033.12.12,0,0,1-.033.069" transform="translate(10.596 23.385)"/><path class="o" d="M11.86,46.1l15.49-3.13a3.094,3.094,0,0,0,2.42-3.646L22.592,3.792A3.659,3.659,0,0,0,18.282.931L3.854,3.846A3.691,3.691,0,0,0,.965,8.2L8.118,43.612A3.177,3.177,0,0,0,11.859,46.1" transform="translate(10.596 23.385)"/><g class="p" transform="translate(10.596 23.385)"><path class="g" d="M11.86,46.1l15.49-3.13a3.094,3.094,0,0,0,2.42-3.646L22.592,3.792A3.659,3.659,0,0,0,18.282.931L3.854,3.846A3.691,3.691,0,0,0,.965,8.2L8.118,43.612A3.177,3.177,0,0,0,11.859,46.1"/></g><path class="q" d="M13.385,45.785l15.49-3.129A3.094,3.094,0,0,0,31.3,39.01L24.12,3.483A3.658,3.658,0,0,0,19.81.623L5.381,3.536a3.7,3.7,0,0,0-2.89,4.353L9.645,43.3a3.175,3.175,0,0,0,3.74,2.481" transform="translate(10.596 23.385)"/><g class="r" transform="translate(12.423 23.75)"><path class="g" d="M17.614,29.492c-3.4-1-5.265-4.573-5.987-8.86C11,16.9,9.66,9.724,8.505,7.022A19.121,19.121,0,0,0,6.463,3.075L3.888,3.6A3.77,3.77,0,0,0,.993,8.07L8.227,43.875a3.321,3.321,0,0,0,2.516.507l15.5-2.58a3.411,3.411,0,0,0,2.622-4.05L26.414,25.608c-.509.54-.97,1.02-1.37,1.427-2.256,2.284-4.654,3.275-7.43,2.458"/></g><path class="o" d="M28.781,41.471,13.616,44.536c-2.054.414-3.279-1.17-3.626-2.888l.307,1.524a3.084,3.084,0,0,0,3.554,2.52l14.56-2.942a3,3,0,0,0,2.237-3.609l-.308-1.524c.339,1.675.553,3.428-1.559,3.854" transform="translate(10.596 23.385)"/><path class="o" d="M19.941,1.273a3,3,0,0,1,3.526,2.342l7.177,35.527A2.432,2.432,0,0,1,28.744,42l-15.492,3.13A2.511,2.511,0,0,1,10.3,43.172L3.145,7.756A3.032,3.032,0,0,1,5.514,4.187L19.94,1.273m-.132-.65L5.382,3.536a3.7,3.7,0,0,0-2.89,4.353L9.646,43.3a3.172,3.172,0,0,0,3.738,2.482l15.492-3.13A3.093,3.093,0,0,0,31.3,39.01L24.119,3.483a3.658,3.658,0,0,0-4.31-2.86" transform="translate(10.596 23.385)"/><path class="o" d="M19.81.622,5.95,3.422a3.689,3.689,0,0,0-.792.257L10.5,4.751a8.812,8.812,0,0,0,7.855-2.3l1.968-1.9a3.434,3.434,0,0,0-.517.066" transform="translate(10.596 23.385)"/><path class="s" d="M2.94,15.147a.229.229,0,0,0,.178-.27l-.48-2.372a.225.225,0,0,0-.267-.178.228.228,0,0,0-.18.269l.48,2.372a.229.229,0,0,0,.27.179m.789,3.916a.227.227,0,0,0,.18-.268l-.48-2.373a.228.228,0,1,0-.447.091l.48,2.372a.226.226,0,0,0,.268.178M13.38,3.4a.255.255,0,1,0,.2-.3.255.255,0,0,0-.2.3M24.488,41.285l-6.137,1.241a.152.152,0,1,1-.06-.3l6.137-1.24a.149.149,0,0,1,.178.118.151.151,0,0,1-.118.18" transform="translate(10.596 23.385)"/><path class="t" d="M42.478,6.377H18.2" transform="translate(58.827 51.52)"/><path class="u" d="M1.576,8.458H59.1v6.178H1.576Z" transform="translate(58.827 51.52)"/><path class="v" d="M59.7,10.162H.981a.95.95,0,0,1-.95-.95V1.1a.95.95,0,0,1,.95-.95H59.7a.95.95,0,0,1,.95.95V9.212a.95.95,0,0,1-.95.95" transform="translate(58.827 51.52)"/><path class="w" d="M59.57,18.47H1.108A1.077,1.077,0,0,1,.031,17.393V13.9a1.077,1.077,0,0,1,1.077-1.077H59.57A1.077,1.077,0,0,1,60.648,13.9v3.49a1.076,1.076,0,0,1-1.078,1.076" transform="translate(58.827 51.52)"/><path class="u" d="M4.822,14.257h-.37a.206.206,0,0,1,0-.412h.37a.206.206,0,0,1,0,.412m1.051,0H5.63a.206.206,0,0,1,0-.412h.243a.206.206,0,0,1,0,.412m49.175,0h-.242a.206.206,0,1,1,0-.412h.242a.206.206,0,0,1,0,.412m-1.051,0h-.728a.206.206,0,1,1,0-.412H54a.206.206,0,0,1,0,.412m-1.537,0h-.243a.206.206,0,1,1,0-.412h.243a.206.206,0,0,1,0,.412m-1.052,0H50.68a.206.206,0,0,1,0-.412h.728a.206.206,0,1,1,0,.412m-1.536,0H49.63a.206.206,0,1,1,0-.412h.242a.206.206,0,0,1,0,.412m-1.052,0h-.727a.206.206,0,1,1,0-.412h.727a.206.206,0,1,1,0,.412m-1.536,0h-.243a.206.206,0,0,1,0-.412h.243a.206.206,0,0,1,0,.412m-1.052,0H45.5a.206.206,0,0,1,0-.412h.728a.206.206,0,1,1,0,.412m-1.536,0h-.243a.206.206,0,1,1,0-.412H44.7a.206.206,0,0,1,0,.412m-1.052,0h-.728a.206.206,0,1,1,0-.412h.728a.206.206,0,0,1,0,.412m-1.536,0h-.243a.206.206,0,1,1,0-.412h.243a.206.206,0,0,1,0,.412m-1.052,0h-.728a.206.206,0,0,1,0-.412h.728a.206.206,0,1,1,0,.412m-1.537,0h-.242a.206.206,0,1,1,0-.412h.242a.206.206,0,1,1,0,.412m-1.05,0h-.73a.206.206,0,0,1,0-.412h.73a.206.206,0,0,1,0,.412m-1.537,0h-.243a.206.206,0,0,1,0-.412h.243a.206.206,0,0,1,0,.412m-1.052,0h-.728a.206.206,0,0,1,0-.412h.728a.206.206,0,1,1,0,.412m-1.537,0H34.1a.206.206,0,1,1,0-.412h.241a.206.206,0,1,1,0,.412m-1.051,0h-.727a.206.206,0,1,1,0-.412h.727a.206.206,0,1,1,0,.412m-1.536,0h-.242a.206.206,0,0,1,0-.412h.242a.206.206,0,0,1,0,.412m-1.052,0h-.728a.206.206,0,0,1,0-.412H30.7a.206.206,0,0,1,0,.412m-1.536,0h-.243a.206.206,0,0,1,0-.412h.243a.206.206,0,0,1,0,.412m-1.051,0h-.729a.206.206,0,0,1,0-.412h.729a.206.206,0,0,1,0,.412m-1.538,0h-.242a.206.206,0,0,1,0-.412h.242a.206.206,0,0,1,0,.412m-1.05,0H24.8a.206.206,0,0,1,0-.412h.728a.206.206,0,0,1,0,.412m-1.537,0h-.243a.206.206,0,0,1,0-.412h.243a.206.206,0,0,1,0,.412m-1.051,0h-.727a.206.206,0,0,1,0-.412h.727a.206.206,0,0,1,0,.412m-1.537,0h-.243a.206.206,0,0,1,0-.412H21.4a.206.206,0,0,1,0,.412m-1.052,0h-.728a.206.206,0,0,1,0-.412h.728a.206.206,0,0,1,0,.412m-1.536,0h-.242a.206.206,0,0,1,0-.412h.242a.206.206,0,0,1,0,.412m-1.052,0h-.727a.206.206,0,0,1,0-.412h.727a.206.206,0,0,1,0,.412m-1.536,0h-.243a.206.206,0,0,1,0-.412h.243a.206.206,0,0,1,0,.412m-1.052,0h-.728a.206.206,0,0,1,0-.412h.728a.206.206,0,1,1,0,.412m-1.536,0H13.4a.206.206,0,0,1,0-.412h.243a.206.206,0,1,1,0,.412m-1.051,0h-.729a.206.206,0,0,1,0-.412h.729a.206.206,0,0,1,0,.412m-1.537,0h-.243a.206.206,0,0,1,0-.412h.243a.206.206,0,0,1,0,.412m-1.052,0H9.271a.206.206,0,0,1,0-.412H10a.206.206,0,1,1,0,.412m-1.537,0H8.22a.206.206,0,0,1,0-.412h.242a.206.206,0,0,1,0,.412m-1.051,0H6.684a.206.206,0,0,1,0-.412h.727a.206.206,0,0,1,0,.412m48.815,0h-.369a.206.206,0,1,1,0-.412h.37a.206.206,0,0,1,0,.412M5.355,15.321h-.37a.206.206,0,1,1,0-.411h.37a.206.206,0,0,1,0,.411m1.085,0H6.189a.206.206,0,1,1,0-.411h.25a.206.206,0,0,1,0,.411m48.05,0h-.25a.206.206,0,1,1,0-.411h.25a.206.206,0,1,1,0,.411m-1.085,0h-.751a.206.206,0,1,1,0-.411h.75a.206.206,0,1,1,0,.411m-1.585,0H51.57a.206.206,0,0,1,0-.411h.251a.206.206,0,0,1,0,.411m-1.085,0h-.75a.206.206,0,1,1,0-.411h.75a.206.206,0,1,1,0,.411m-1.584,0H48.9a.206.206,0,1,1,0-.411h.25a.206.206,0,1,1,0,.411m-1.085,0h-.751a.206.206,0,1,1,0-.411h.751a.206.206,0,0,1,0,.411m-1.586,0h-.25a.206.206,0,0,1,0-.411h.25a.206.206,0,1,1,0,.411m-1.084,0h-.75a.206.206,0,1,1,0-.411H45.4a.206.206,0,1,1,0,.411m-1.585,0h-.25a.206.206,0,0,1,0-.411h.251a.206.206,0,0,1,0,.411m-1.085,0h-.75a.206.206,0,1,1,0-.411h.751a.206.206,0,1,1,0,.411m-1.584,0h-.25a.206.206,0,1,1,0-.411h.25a.206.206,0,1,1,0,.411m-1.084,0h-.752a.206.206,0,0,1,0-.411h.752a.206.206,0,0,1,0,.411m-1.586,0h-.25a.206.206,0,1,1,0-.411h.25a.206.206,0,1,1,0,.411m-1.085,0h-.75a.206.206,0,1,1,0-.411h.751a.206.206,0,1,1,0,.411m-1.585,0h-.25a.206.206,0,0,1,0-.411h.25a.206.206,0,1,1,0,.411m-1.083,0h-.751a.206.206,0,1,1,0-.411h.75a.206.206,0,0,1,0,.411m-1.586,0h-.25a.206.206,0,0,1,0-.411h.25a.206.206,0,1,1,0,.411m-1.084,0H31.3a.206.206,0,1,1,0-.411h.751a.206.206,0,1,1,0,.411m-1.585,0h-.25a.206.206,0,0,1,0-.411h.251a.206.206,0,0,1,0,.411m-1.085,0h-.75a.206.206,0,1,1,0-.411h.75a.206.206,0,1,1,0,.411m-1.585,0h-.25a.206.206,0,0,1,0-.411h.25a.206.206,0,1,1,0,.411m-1.084,0h-.751a.206.206,0,1,1,0-.411h.751a.206.206,0,0,1,0,.411m-1.586,0h-.25a.206.206,0,0,1,0-.411h.25a.206.206,0,1,1,0,.411m-1.083,0h-.751a.206.206,0,1,1,0-.411h.75a.206.206,0,0,1,0,.411m-1.586,0h-.25a.206.206,0,1,1,0-.411h.25a.206.206,0,1,1,0,.411m-1.084,0h-.752a.206.206,0,0,1,0-.411h.752a.206.206,0,0,1,0,.411m-1.585,0h-.25a.206.206,0,1,1,0-.411h.25a.206.206,0,0,1,0,.411m-1.085,0h-.751a.206.206,0,0,1,0-.411h.75a.206.206,0,1,1,0,.411m-1.586,0h-.249a.206.206,0,1,1,0-.411h.25a.206.206,0,1,1,0,.411m-1.083,0h-.75a.206.206,0,1,1,0-.411h.751a.206.206,0,0,1,0,.411m-1.586,0H14.2a.206.206,0,0,1,0-.411h.25a.206.206,0,1,1,0,.411m-1.084,0h-.751a.206.206,0,0,1,0-.411h.751a.206.206,0,1,1,0,.411m-1.585,0h-.25a.206.206,0,0,1,0-.411h.25a.206.206,0,0,1,0,.411m-1.085,0h-.75a.206.206,0,0,1,0-.411h.75a.206.206,0,1,1,0,.411m-1.584,0H8.86a.206.206,0,1,1,0-.411h.25a.206.206,0,0,1,0,.411m-1.084,0H7.273a.206.206,0,0,1,0-.411h.753a.206.206,0,0,1,0,.411m47.669,0h-.371a.206.206,0,1,1,0-.411h.37a.206.206,0,0,1,0,.411M4.822,16.386h-.37a.2.2,0,0,1,0-.41h.37a.2.2,0,1,1,0,.41m1.051,0H5.63a.205.205,0,0,1,0-.41h.243a.205.205,0,1,1,0,.41m49.175,0h-.242a.205.205,0,1,1,0-.41h.242a.2.2,0,1,1,0,.41m-1.051,0h-.728a.205.205,0,1,1,0-.41H54a.2.2,0,1,1,0,.41m-1.537,0h-.243a.205.205,0,1,1,0-.41h.243a.2.2,0,1,1,0,.41m-1.052,0H50.68a.205.205,0,0,1,0-.41h.728a.205.205,0,1,1,0,.41m-1.536,0H49.63a.205.205,0,1,1,0-.41h.242a.2.2,0,1,1,0,.41m-1.052,0h-.727a.205.205,0,1,1,0-.41h.727a.205.205,0,1,1,0,.41m-1.536,0h-.243a.2.2,0,1,1,0-.41h.243a.2.2,0,1,1,0,.41m-1.052,0H45.5a.2.2,0,1,1,0-.41h.728a.205.205,0,1,1,0,.41m-1.536,0h-.243a.205.205,0,1,1,0-.41H44.7a.2.2,0,1,1,0,.41m-1.052,0h-.728a.205.205,0,1,1,0-.41h.728a.2.2,0,1,1,0,.41m-1.536,0h-.243a.205.205,0,1,1,0-.41h.243a.2.2,0,1,1,0,.41m-1.052,0h-.728a.2.2,0,1,1,0-.41h.728a.205.205,0,1,1,0,.41m-1.537,0h-.242a.205.205,0,1,1,0-.41h.242a.205.205,0,1,1,0,.41m-1.05,0h-.73a.205.205,0,0,1,0-.41h.73a.205.205,0,1,1,0,.41m-1.537,0h-.243a.2.2,0,1,1,0-.41h.243a.2.2,0,1,1,0,.41m-1.052,0h-.728a.2.2,0,1,1,0-.41h.728a.205.205,0,1,1,0,.41m-1.537,0H34.1a.205.205,0,1,1,0-.41h.241a.205.205,0,1,1,0,.41m-1.051,0h-.727a.205.205,0,1,1,0-.41h.727a.205.205,0,1,1,0,.41m-1.536,0h-.242a.205.205,0,1,1,0-.41h.242a.2.2,0,0,1,0,.41m-1.052,0h-.728a.2.2,0,0,1,0-.41H30.7a.205.205,0,1,1,0,.41m-1.536,0h-.243a.205.205,0,1,1,0-.41h.243a.205.205,0,1,1,0,.41m-1.051,0h-.729a.2.2,0,0,1,0-.41h.729a.2.2,0,0,1,0,.41m-1.538,0h-.242a.205.205,0,1,1,0-.41h.242a.205.205,0,1,1,0,.41m-1.05,0H24.8a.2.2,0,1,1,0-.41h.728a.205.205,0,1,1,0,.41m-1.537,0h-.243a.2.2,0,1,1,0-.41h.243a.205.205,0,1,1,0,.41m-1.051,0h-.727a.205.205,0,1,1,0-.41h.727a.205.205,0,1,1,0,.41m-1.537,0h-.243a.2.2,0,1,1,0-.41H21.4a.2.2,0,0,1,0,.41m-1.052,0h-.728a.205.205,0,0,1,0-.41h.728a.205.205,0,1,1,0,.41m-1.536,0h-.242a.205.205,0,1,1,0-.41h.242a.2.2,0,0,1,0,.41m-1.052,0h-.727a.205.205,0,1,1,0-.41h.727a.205.205,0,1,1,0,.41m-1.536,0h-.243a.2.2,0,1,1,0-.41h.243a.205.205,0,1,1,0,.41m-1.052,0h-.728a.2.2,0,0,1,0-.41h.728a.205.205,0,1,1,0,.41m-1.536,0H13.4a.205.205,0,1,1,0-.41h.243a.205.205,0,1,1,0,.41m-1.051,0h-.729a.2.2,0,1,1,0-.41h.729a.205.205,0,0,1,0,.41m-1.537,0h-.243a.2.2,0,1,1,0-.41h.243a.2.2,0,0,1,0,.41m-1.052,0H9.271a.205.205,0,1,1,0-.41H10a.205.205,0,1,1,0,.41m-1.537,0H8.22a.2.2,0,0,1,0-.41h.242a.205.205,0,1,1,0,.41m-1.051,0H6.684a.205.205,0,1,1,0-.41h.727a.205.205,0,1,1,0,.41m48.815,0h-.369a.205.205,0,1,1,0-.41h.37a.205.205,0,1,1,0,.41M5.355,17.452h-.37a.206.206,0,1,1,0-.411h.37a.206.206,0,0,1,0,.411m1.085,0H6.189a.206.206,0,1,1,0-.411h.25a.206.206,0,1,1,0,.411m48.05,0h-.25a.206.206,0,1,1,0-.411h.25a.206.206,0,1,1,0,.411m-1.085,0h-.751a.206.206,0,1,1,0-.411h.75a.206.206,0,1,1,0,.411m-1.585,0H51.57a.206.206,0,0,1,0-.411h.251a.206.206,0,0,1,0,.411m-1.085,0h-.75a.206.206,0,1,1,0-.411h.75a.206.206,0,1,1,0,.411m-1.584,0H48.9a.206.206,0,1,1,0-.411h.25a.206.206,0,1,1,0,.411m-1.085,0h-.751a.206.206,0,1,1,0-.411h.751a.206.206,0,0,1,0,.411m-1.586,0h-.25a.206.206,0,0,1,0-.411h.25a.206.206,0,1,1,0,.411m-1.084,0h-.75a.206.206,0,1,1,0-.411H45.4a.206.206,0,1,1,0,.411m-1.585,0h-.25a.206.206,0,0,1,0-.411h.251a.206.206,0,0,1,0,.411m-1.085,0h-.75a.206.206,0,1,1,0-.411h.751a.206.206,0,1,1,0,.411m-1.584,0h-.25a.206.206,0,1,1,0-.411h.25a.206.206,0,1,1,0,.411m-1.084,0h-.752a.206.206,0,0,1,0-.411h.752a.206.206,0,0,1,0,.411m-1.586,0h-.25a.206.206,0,1,1,0-.411h.25a.206.206,0,1,1,0,.411m-1.085,0h-.75a.206.206,0,1,1,0-.411h.751a.206.206,0,1,1,0,.411m-1.585,0h-.25a.206.206,0,0,1,0-.411h.25a.206.206,0,1,1,0,.411m-1.083,0h-.751a.206.206,0,1,1,0-.411h.75a.206.206,0,0,1,0,.411m-1.586,0h-.25a.206.206,0,0,1,0-.411h.25a.206.206,0,1,1,0,.411m-1.084,0H31.3a.206.206,0,1,1,0-.411h.751a.206.206,0,1,1,0,.411m-1.585,0h-.25a.206.206,0,1,1,0-.411h.251a.206.206,0,0,1,0,.411m-1.085,0h-.75a.206.206,0,1,1,0-.411h.75a.206.206,0,1,1,0,.411m-1.585,0h-.25a.206.206,0,0,1,0-.411h.25a.206.206,0,1,1,0,.411m-1.084,0h-.751a.206.206,0,1,1,0-.411h.751a.206.206,0,0,1,0,.411m-1.586,0h-.25a.206.206,0,0,1,0-.411h.25a.206.206,0,1,1,0,.411m-1.083,0h-.751a.206.206,0,1,1,0-.411h.75a.206.206,0,1,1,0,.411m-1.586,0h-.25a.206.206,0,1,1,0-.411h.25a.206.206,0,1,1,0,.411m-1.084,0h-.752a.206.206,0,0,1,0-.411h.752a.206.206,0,0,1,0,.411m-1.585,0h-.25a.206.206,0,1,1,0-.411h.25a.206.206,0,0,1,0,.411m-1.085,0h-.751a.206.206,0,0,1,0-.411h.75a.206.206,0,1,1,0,.411m-1.586,0h-.249a.206.206,0,1,1,0-.411h.25a.206.206,0,1,1,0,.411m-1.083,0h-.75a.206.206,0,1,1,0-.411h.751a.206.206,0,0,1,0,.411m-1.586,0H14.2a.206.206,0,0,1,0-.411h.25a.206.206,0,1,1,0,.411m-1.084,0h-.751a.206.206,0,0,1,0-.411h.751a.206.206,0,1,1,0,.411m-1.585,0h-.25a.206.206,0,0,1,0-.411h.25a.206.206,0,0,1,0,.411m-1.085,0h-.75a.206.206,0,0,1,0-.411h.75a.206.206,0,1,1,0,.411m-1.584,0H8.86a.206.206,0,1,1,0-.411h.25a.206.206,0,0,1,0,.411m-1.084,0H7.273a.206.206,0,0,1,0-.411h.753a.206.206,0,0,1,0,.411m47.669,0h-.371a.206.206,0,1,1,0-.411h.37a.206.206,0,0,1,0,.411" transform="translate(58.827 51.52)"/><path class="x" d="M7.635,11.547a.48.48,0,1,1-.48-.48.48.48,0,0,1,.48.48m2.77,0a.48.48,0,1,1-.48-.48.48.48,0,0,1,.48.48m2.77,0a.48.48,0,1,1-.48-.48.48.48,0,0,1,.48.48m2.769,0a.48.48,0,1,1-.479-.48.479.479,0,0,1,.479.48" transform="translate(58.827 51.52)"/><g transform="translate(110.347 54.443)"><path class="y" d="M1.106.684C.849.688.376.814.159,1.7A3.021,3.021,0,0,0,.109,2.96,4.865,4.865,0,0,0,.4,3.99a1.014,1.014,0,0,0,.114.194.313.313,0,0,0,.356.088c.08-.04.172-.135.14-.353a3.156,3.156,0,0,0-.09-.346,3.781,3.781,0,0,1-.2-.806c-.013-.3.105-.34.185-.358.133-.03.245.117.35.3.127.218.344.606.52.9a1.013,1.013,0,0,0,.927.534A1,1,0,0,0,3.732,3.36a9.747,9.747,0,0,1,.38-1.088c.173-.382.405-.586.6-.523s.226.234.228.492a5.763,5.763,0,0,1-.046.668,1.92,1.92,0,0,0-.015.278.305.305,0,0,0,.241.319A.371.371,0,0,0,5.5,3.218a1.729,1.729,0,0,0,.051-.244,4.373,4.373,0,0,0,.043-1,3.546,3.546,0,0,0-.266-1.2A.822.822,0,0,0,4.648.212a.988.988,0,0,0-.906.623c-.184.391-.33.794-.42,1A.514.514,0,0,1,2.9,2.19a.691.691,0,0,1-.62-.411,5.776,5.776,0,0,0-.552-.8.788.788,0,0,0-.618-.3"/></g><path class="u" d="M8.886,1.849V22.123a1.509,1.509,0,0,1-1.51,1.51H2.815a1.509,1.509,0,0,1-1.51-1.51V1.85A1.509,1.509,0,0,1,2.815.34H7.376a1.509,1.509,0,0,1,1.51,1.51" transform="translate(29.962 43.48)"/><path class="w" d="M6.7,3.333a1.621,1.621,0,1,1-1.622-1.62A1.621,1.621,0,0,1,6.7,3.333" transform="translate(29.962 43.48)"/><path class="z" d="M8.927,28.3H1.264a1.1,1.1,0,0,1-1.1-1.191l.368-4.446a1.1,1.1,0,0,1,1.1-1.01H8.56a1.1,1.1,0,0,1,1.1,1.01l.367,4.446a1.1,1.1,0,0,1-1.1,1.191" transform="translate(29.962 43.48)"/><path class="aa" d="M7.471,11.19a.906.906,0,1,1-.906-.907.906.906,0,0,1,.906.907" transform="translate(29.962 43.48)"/><path class="ab" d="M4.56,11.19a.907.907,0,1,1-.907-.907.907.907,0,0,1,.907.907" transform="translate(29.962 43.48)"/></g></svg>