<svg width="127" height="38" viewBox="0 0 127 38" fill="none" xmlns="http://www.w3.org/2000/svg">
<path fill-rule="evenodd" clip-rule="evenodd" d="M115.778 37.1991L115.621 35.9259C115.608 35.8009 115.578 35.7297 115.526 35.699C115.481 35.6511 115.386 35.6466 115.267 35.6608L115.204 35.6673L115.154 35.6725L115.051 35.6835L114.876 35.702C114.728 35.7215 114.585 35.7215 114.471 35.7215C114.173 35.7215 113.98 35.6511 113.87 35.5118C113.762 35.374 113.718 35.0969 113.718 34.703V21.5482C113.718 21.3752 113.686 21.2756 113.611 21.2292C113.554 21.179 113.443 21.167 113.27 21.167H112.563C112.065 21.1947 111.098 21.4606 111.087 22.891V35.3403C111.087 36.3199 111.279 37.0059 111.672 37.3991C112.046 37.796 112.661 37.999 113.492 37.999C113.715 37.999 113.95 37.9812 114.218 37.961C114.311 37.954 114.408 37.9467 114.509 37.9398C114.876 37.8926 115.219 37.8207 115.518 37.7001C115.661 37.62 115.748 37.5563 115.778 37.5069C115.81 37.4537 115.81 37.3451 115.778 37.1991ZM54.7536 21.8543C54.9642 21.8543 55.0904 21.8738 55.1396 21.9704C55.199 22.0475 55.2291 22.1838 55.2291 22.3606V23.7663C55.2291 23.9677 55.199 24.1108 55.1315 24.1744C55.075 24.2568 54.9503 24.2875 54.7536 24.2875H48.7994C48.2322 24.2875 47.8316 24.4193 47.6129 24.6635C47.3752 24.9159 47.2563 25.2896 47.2563 25.7719V28.4171H53.9304C54.1329 28.4171 54.2466 28.4605 54.3002 28.5264C54.3537 28.5908 54.3794 28.7256 54.3794 28.9443V30.2347C54.3794 30.4032 54.3537 30.5275 54.3002 30.6189C54.2466 30.717 54.1329 30.7567 53.9304 30.7567H47.2563V35.9894C47.2563 37.4648 46.2489 37.7149 45.7764 37.7471H45.0654C44.8995 37.7471 44.7785 37.7194 44.6838 37.652C44.5972 37.5928 44.5518 37.4648 44.5518 37.273V25.9292C44.5518 25.3944 44.6163 24.8852 44.744 24.3954C44.8651 23.8988 45.0808 23.4757 45.3941 23.0848C45.7052 22.7126 46.1198 22.404 46.6143 22.1838C47.1184 21.9457 47.7604 21.8543 48.5 21.8543H54.7536ZM64.625 36.461C64.625 36.8213 64.4878 37.0639 64.198 37.1995C63.8722 37.3455 63.5252 37.4878 63.1517 37.5889C62.7657 37.6908 62.3849 37.7769 61.9799 37.8353C61.5793 37.893 61.1867 37.9394 60.7979 37.9589C60.4038 37.9866 60.026 37.9993 59.6672 37.9993C58.6928 37.9993 57.8754 37.893 57.2334 37.6908C56.5847 37.4878 56.0814 37.2227 55.6969 36.8714C55.3256 36.5352 55.0608 36.13 54.9177 35.6664C54.7665 35.2133 54.6873 34.719 54.6873 34.215C54.6873 33.6668 54.7827 33.1763 54.9522 32.679C55.1173 32.187 55.3946 31.7511 55.7754 31.3751C56.1753 31.0134 56.6603 30.7168 57.284 30.4884C57.9025 30.254 58.6502 30.1409 59.5278 30.1409H62.0254V29.7635C62.0254 29.4684 61.9946 29.2122 61.9418 28.9614C61.8779 28.7254 61.7613 28.5187 61.5947 28.3308C61.4164 28.1548 61.1867 28.0057 60.9035 27.9129C60.5961 27.8125 60.2123 27.7571 59.7391 27.7571C59.2291 27.7571 58.6928 27.8073 58.0984 27.8986C57.4916 27.9833 57.0228 28.0881 56.6442 28.2184C56.4747 28.2596 56.3646 28.2761 56.289 28.2461C56.2215 28.2184 56.1753 28.1218 56.1379 27.9833L55.8349 26.6981C55.7725 26.4555 55.8349 26.296 56.0286 26.2241C56.6442 25.9919 57.3324 25.8047 58.0691 25.711C58.8065 25.6092 59.5087 25.5583 60.1558 25.5583C61.6996 25.5583 62.8252 25.9065 63.5479 26.6023C64.2662 27.2988 64.625 28.3113 64.625 29.6481V36.461ZM62.0006 32.1637H59.8691C59.616 32.1637 59.3511 32.1817 59.0613 32.2139C58.7648 32.2446 58.5051 32.3277 58.2329 32.4618C57.9878 32.6026 57.7574 32.7846 57.5938 33.0392C57.4287 33.3096 57.3421 33.6683 57.3421 34.1199C57.3421 34.7625 57.5608 35.2216 57.9878 35.4747C58.4141 35.7316 58.9864 35.8746 59.6989 35.8746C59.7844 35.8746 59.9027 35.8651 60.0552 35.8529H60.0552H60.0552L60.1303 35.8469C60.3145 35.8394 60.5111 35.8274 60.7114 35.7922C60.7924 35.7785 60.8733 35.7652 60.9556 35.7517L60.9556 35.7517L60.9557 35.7517L60.9557 35.7517L60.9558 35.7517C61.0889 35.7298 61.2257 35.7073 61.3725 35.6814C61.5993 35.635 61.8223 35.5803 62.0006 35.4949V32.1637ZM80.7861 37.1995C81.0722 37.0639 81.2168 36.8213 81.2168 36.461V29.6481C81.2168 28.3113 80.858 27.2988 80.1353 26.6023C79.414 25.9065 78.284 25.5583 76.7505 25.5583C76.0975 25.5583 75.4012 25.6092 74.6535 25.711C73.9168 25.8047 73.2322 25.9919 72.6056 26.2241C72.42 26.296 72.3437 26.4555 72.4083 26.6981L72.7113 27.9833C72.7568 28.1218 72.8023 28.2184 72.8815 28.2461C72.949 28.2761 73.0745 28.2596 73.2322 28.2184C73.6072 28.0881 74.0819 27.9833 74.6755 27.8986C75.2662 27.8073 75.8201 27.7571 76.3191 27.7571C76.7916 27.7571 77.1849 27.8125 77.4718 27.9129C77.7704 28.0057 78.0052 28.1548 78.1784 28.3308C78.3486 28.5187 78.4653 28.7254 78.5159 28.9614C78.5834 29.2122 78.6054 29.4684 78.6054 29.7635V30.1409H76.1114C75.228 30.1409 74.4789 30.254 73.8559 30.4884C73.2447 30.7168 72.7568 31.0134 72.3679 31.3751C71.982 31.7511 71.7061 32.187 71.5395 32.679C71.3619 33.1763 71.2724 33.6668 71.2724 34.215C71.2724 34.719 71.3429 35.2133 71.4992 35.6664C71.6532 36.13 71.9101 36.5352 72.2843 36.8714C72.6621 37.2227 73.1721 37.4878 73.8258 37.6908C74.473 37.893 75.2772 37.9993 76.2545 37.9993C76.6104 37.9993 76.9772 37.9866 77.3742 37.9589C77.7704 37.9394 78.163 37.893 78.5753 37.8353C78.9759 37.7769 79.3582 37.6908 79.7434 37.5889C80.1052 37.4878 80.4618 37.3455 80.7861 37.1995ZM76.4565 32.1637H78.5946V35.4949C78.4031 35.5803 78.1866 35.635 77.9548 35.6814C77.8391 35.7023 77.7266 35.7209 77.6186 35.7388L77.6185 35.7388C77.5093 35.7568 77.4046 35.7742 77.3061 35.7922C77.0867 35.8274 76.8864 35.8394 76.7133 35.8469L76.6039 35.8555C76.4665 35.8665 76.3641 35.8746 76.2818 35.8746C75.5635 35.8746 74.989 35.7316 74.5627 35.4747C74.1356 35.2216 73.9273 34.7625 73.9273 34.1199C73.9273 33.6683 74.0006 33.3096 74.1811 33.0392C74.347 32.7846 74.5627 32.6026 74.8268 32.4618C75.08 32.3277 75.3559 32.2446 75.6545 32.2139C75.9304 32.1817 76.1952 32.1637 76.4565 32.1637ZM126.09 36.461C126.09 36.8213 125.947 37.0639 125.664 37.1995C125.342 37.3455 124.995 37.4878 124.609 37.5889C124.228 37.6908 123.843 37.7769 123.443 37.8353C123.045 37.893 122.641 37.9394 122.252 37.9589C121.862 37.9866 121.489 37.9993 121.129 37.9993C120.15 37.9993 119.343 37.893 118.692 37.6908C118.058 37.4878 117.543 37.2227 117.154 36.8714C116.787 36.5352 116.527 36.13 116.377 35.6664C116.221 35.2133 116.142 34.719 116.142 34.215C116.142 33.6668 116.232 33.1763 116.414 32.679C116.572 32.187 116.855 31.7511 117.24 31.3751C117.618 31.0134 118.121 30.7168 118.741 30.4884C119.354 30.254 120.113 30.1409 120.997 30.1409H123.491V29.7635C123.491 29.4684 123.461 29.2122 123.405 28.9614C123.343 28.7254 123.218 28.5187 123.051 28.3308C122.875 28.1548 122.652 28.0057 122.352 27.9129C122.055 27.8125 121.672 27.7571 121.197 27.7571C120.694 27.7571 120.139 27.8073 119.538 27.8986C118.96 27.9833 118.477 28.0881 118.102 28.2184C117.94 28.2596 117.819 28.2761 117.748 28.2461C117.667 28.2184 117.618 28.1218 117.592 27.9833L117.284 26.6981C117.222 26.4555 117.287 26.296 117.486 26.2241C118.102 25.9919 118.786 25.8047 119.524 25.711C120.275 25.6092 120.97 25.5583 121.613 25.5583C123.162 25.5583 124.295 25.9065 125.014 26.6023C125.72 27.2988 126.09 28.3113 126.09 29.6481V36.461ZM123.459 32.1637H121.331C121.074 32.1637 120.802 32.1817 120.518 32.2139C120.229 32.2446 119.957 32.3277 119.687 32.4618C119.428 32.6026 119.22 32.7846 119.045 33.0392C118.882 33.3096 118.785 33.6683 118.785 34.1199C118.785 34.7625 119.011 35.2216 119.436 35.4747C119.857 35.7316 120.439 35.8746 121.154 35.8746C121.239 35.8746 121.358 35.8651 121.511 35.8528L121.584 35.8469C121.77 35.8394 121.967 35.8274 122.167 35.7922L122.324 35.7665L122.325 35.7665C122.489 35.7398 122.653 35.7132 122.828 35.6814C123.058 35.635 123.266 35.5803 123.459 35.4949V32.1637ZM99.3367 25.559C101.037 25.559 102.306 26.0151 103.137 26.9004C103.95 27.7968 104.354 29.0153 104.354 30.5768C104.354 30.967 104.312 31.298 104.229 31.5571C104.139 31.802 104.009 32.0065 103.844 32.1712C103.693 32.3158 103.499 32.4251 103.277 32.4753C103.061 32.5382 102.831 32.5637 102.578 32.5637H96.6732C96.6791 33.1763 96.7679 33.6579 96.9293 34.0615C97.0988 34.4614 97.3218 34.7775 97.5985 35.0321C97.8824 35.2823 98.2031 35.4627 98.5729 35.5668C98.9434 35.6724 99.3587 35.7226 99.7857 35.7226C100.25 35.7226 100.73 35.6665 101.184 35.5459C101.637 35.4298 102.042 35.2823 102.382 35.1175C102.608 35.0164 102.782 35.0508 102.873 35.2471L103.477 36.5352C103.575 36.7868 103.523 36.9598 103.315 37.0647C102.756 37.4107 102.139 37.6526 101.474 37.7859C100.806 37.9207 100.164 38.0001 99.5553 38.0001C97.7606 38.0001 96.3849 37.5073 95.4515 36.5142C94.4955 35.5376 94.023 33.9784 94.023 31.8455C94.023 30.8419 94.1528 29.9567 94.4177 29.1823C94.6892 28.3952 95.0546 27.7391 95.5154 27.2112C95.996 26.6682 96.5514 26.263 97.1971 25.9927C97.8501 25.7028 98.5648 25.559 99.3367 25.559ZM99.3808 27.7577C98.9846 27.7577 98.6258 27.8386 98.3162 27.9959C97.9955 28.1606 97.7343 28.3763 97.5105 28.6452C97.2963 28.923 97.1143 29.2353 96.9815 29.5783C96.8458 29.9214 96.768 30.2786 96.7592 30.6635H101.869C101.869 30.2539 101.842 29.8787 101.755 29.5297C101.683 29.1852 101.561 28.8848 101.365 28.6182C101.184 28.3531 100.927 28.1412 100.622 27.9839C100.3 27.8386 99.8908 27.7577 99.3808 27.7577ZM109.927 35.9259L110.081 37.1991C110.111 37.3451 110.111 37.4537 110.081 37.5069C110.054 37.5563 109.964 37.62 109.814 37.7001C109.519 37.8207 109.19 37.8926 108.807 37.9398C108.718 37.9461 108.631 37.9528 108.546 37.9592C108.273 37.9801 108.027 37.999 107.8 37.999C106.955 37.999 106.36 37.796 105.968 37.3991C105.585 37.0059 105.377 36.3199 105.377 35.3403V22.8056C105.442 21.4531 106.371 21.1947 106.85 21.167H107.573C107.73 21.167 107.848 21.179 107.914 21.2292C107.984 21.2756 108.027 21.3752 108.027 21.5482V34.703C108.027 35.0969 108.064 35.374 108.17 35.5118C108.267 35.6511 108.48 35.7215 108.769 35.7215C108.887 35.7215 109.027 35.7215 109.19 35.702L109.238 35.6967C109.363 35.683 109.48 35.6701 109.568 35.6608C109.695 35.6466 109.784 35.6511 109.827 35.699C109.884 35.7297 109.908 35.8009 109.927 35.9259ZM92.8225 29.2359C92.6149 28.4697 92.3207 27.8271 91.9076 27.2797C91.5033 26.7449 90.9794 26.3106 90.3286 26.0155C89.6865 25.7114 88.9154 25.5594 88.032 25.5594C87.6306 25.5594 87.1735 25.5983 86.6562 25.6665C86.1536 25.7339 85.6847 25.8388 85.2386 25.9683L85.2283 21.5767C85.2283 21.3834 85.2093 21.2756 85.1418 21.2299C85.0875 21.1797 84.9671 21.167 84.8094 21.167H84.116C83.6193 21.1947 82.6808 21.4531 82.6507 22.8618V36.6367C82.6507 36.764 82.6742 36.8718 82.7182 36.9684C82.7564 37.0418 82.8584 37.1145 82.9765 37.1654C83.6567 37.4882 84.375 37.6912 85.1718 37.805C85.9731 37.9308 86.7398 37.9997 87.5029 37.9997C88.4693 37.9997 89.3197 37.8357 90.0424 37.5226C90.7446 37.1999 91.3264 36.7625 91.7938 36.1948C92.2451 35.6256 92.5929 34.9546 92.7961 34.1832C93.0082 33.4081 93.1168 32.5715 93.1168 31.6728C93.1168 30.7891 93.0148 29.9728 92.8225 29.2359ZM90.2303 33.6098C90.0791 34.1198 89.8656 34.528 89.6088 34.8395C89.3337 35.1623 89.013 35.387 88.63 35.53C88.2573 35.6813 87.8229 35.7457 87.3724 35.7457C87.0701 35.7457 86.7223 35.7315 86.3378 35.7015C85.9636 35.6536 85.5967 35.5802 85.2269 35.4566V28.1973C85.6987 28.0468 86.1551 27.9412 86.5902 27.9008C87.029 27.8476 87.3577 27.8281 87.5991 27.8281C88.484 27.8281 89.1825 28.1562 89.6954 28.804C90.1951 29.4533 90.4438 30.4568 90.4438 31.7787C90.4438 32.5036 90.3763 33.117 90.2303 33.6098ZM70.7932 35.9259L70.9525 37.1991C70.9745 37.3451 70.9745 37.4537 70.9525 37.5069C70.918 37.5563 70.8277 37.62 70.6832 37.7001C70.3889 37.8207 70.0455 37.8926 69.675 37.9398C69.5878 37.9459 69.5026 37.9524 69.4197 37.9586C69.1392 37.9798 68.8847 37.999 68.6661 37.999C67.8267 37.999 67.2148 37.796 66.834 37.3991C66.448 37.0059 66.2558 36.3199 66.2558 35.3403V22.918C66.2668 21.4606 67.2302 21.1947 67.7211 21.167H68.4394C68.6096 21.167 68.7072 21.179 68.7828 21.2292C68.8503 21.2756 68.8745 21.3752 68.8745 21.5482V34.703C68.8745 35.0969 68.931 35.374 69.044 35.5118C69.1342 35.6511 69.3492 35.7215 69.6325 35.7215C69.7616 35.7215 69.8856 35.7215 70.0455 35.702C70.1916 35.6863 70.3317 35.6713 70.4337 35.6608C70.5584 35.6466 70.6502 35.6511 70.6986 35.699C70.7448 35.7297 70.7822 35.8009 70.7932 35.9259Z" fill="#8B929B"/>
<path fill-rule="evenodd" clip-rule="evenodd" d="M54.9994 10.3576C54.6891 10.079 54.3266 9.86255 53.9223 9.6903V9.53602C54.4169 9.24694 54.8322 8.83878 55.166 8.29132C55.494 7.74311 55.6635 7.1245 55.6635 6.45422C55.6635 5.76746 55.5314 5.17431 55.2981 4.67703C55.053 4.18125 54.7265 3.77384 54.2995 3.46229C53.8922 3.1425 53.3816 2.91258 52.7968 2.76504C52.2061 2.60402 51.5766 2.53662 50.8993 2.53662L45.7837 2.55909C45.3185 2.55909 44.9891 2.66469 44.8159 2.87588C44.6376 3.07659 44.5518 3.40761 44.5518 3.84124V17.0492C44.5518 17.503 44.6376 17.8243 44.8159 18.037C44.9891 18.2355 45.3185 18.3276 45.7837 18.3276H51.1613C51.8855 18.3276 52.551 18.2167 53.1856 17.9853C53.8013 17.7666 54.3457 17.4424 54.8101 17.0275C55.279 16.6066 55.6451 16.1085 55.9166 15.5154C56.1815 14.9342 56.3246 14.2917 56.3246 13.5892C56.3246 13.1825 56.2806 12.7871 56.1815 12.3931C56.0832 12.0067 55.9357 11.63 55.7471 11.2877C55.5586 10.941 55.3017 10.6324 54.9994 10.3576ZM52.8712 11.6376C53.3166 12.0952 53.5433 12.6883 53.5433 13.4088C53.5433 13.6619 53.5059 13.933 53.4222 14.2318C53.3467 14.5142 53.2007 14.7815 52.9959 15.0204C52.7876 15.2638 52.5197 15.463 52.1712 15.6203C51.8403 15.7843 51.4052 15.8525 50.8762 15.8525H47.2368V10.9538H50.8982C51.7596 10.9538 52.4178 11.1875 52.8712 11.6376ZM50.8072 8.68325H47.2368V4.98584H50.9444C51.5299 4.98584 52.0017 5.14236 52.3341 5.4629C52.69 5.7782 52.8602 6.20208 52.8602 6.7473C52.8602 7.14722 52.7956 7.47001 52.6584 7.7194C52.5337 7.96504 52.3613 8.16575 52.1529 8.31254C51.9533 8.45259 51.7266 8.54396 51.4844 8.60162C51.2386 8.66004 51.0149 8.68325 50.8072 8.68325ZM66.6153 17.0485C66.6153 17.411 66.4751 17.6574 66.1912 17.7922C65.8786 17.9368 65.5257 18.0671 65.1478 18.1734C64.7751 18.279 64.3891 18.3644 63.9892 18.4236C63.5952 18.4805 63.2063 18.5217 62.8101 18.5494C62.4242 18.5666 62.0492 18.5718 61.6985 18.5718C60.727 18.5718 59.9221 18.4805 59.2882 18.279C58.6484 18.0753 58.1384 17.802 57.7657 17.4627C57.3915 17.1332 57.1376 16.7362 56.9806 16.2637C56.8353 15.8188 56.7641 15.332 56.7641 14.8257C56.7641 14.2955 56.8478 13.796 57.0209 13.3077C57.1831 12.8142 57.4553 12.3813 57.8442 12.0203C58.2191 11.6571 58.7129 11.3642 59.3263 11.1366C59.9383 10.9037 60.6889 10.7928 61.5657 10.7928H64.0333V10.4071C64.0333 10.1338 64.0032 9.86716 63.9467 9.629C63.8895 9.38335 63.7765 9.18115 63.6062 8.99766C63.4331 8.81642 63.21 8.67638 62.915 8.57452C62.6135 8.47567 62.2385 8.43747 61.766 8.43747C61.2751 8.43747 60.7241 8.47567 60.1378 8.56853C59.5494 8.6599 59.0644 8.76475 58.7027 8.88083C58.5398 8.93026 58.4297 8.93026 58.3468 8.90929C58.2786 8.87709 58.2191 8.79545 58.1956 8.6599L57.8867 7.36951C57.8251 7.1381 57.8904 6.98082 58.0973 6.91042C58.7027 6.66553 59.3748 6.49253 60.1114 6.39592C60.8532 6.29631 61.5444 6.24988 62.1864 6.24988C63.7119 6.24988 64.8345 6.59513 65.5448 7.28339C66.2668 7.97089 66.6153 8.97969 66.6153 10.3038V17.0485ZM64.0144 12.7966H61.9027C61.6496 12.7966 61.3781 12.8101 61.0941 12.8408C60.8109 12.8715 60.5321 12.9516 60.2789 13.0894C60.0251 13.2295 59.8137 13.4219 59.6362 13.6721C59.466 13.923 59.383 14.2847 59.383 14.7303C59.383 15.3759 59.5988 15.8207 60.0251 16.0746C60.4565 16.3337 61.0185 16.4633 61.7222 16.4633C61.8279 16.4633 61.968 16.4633 62.1514 16.4498C62.3327 16.4468 62.5344 16.4273 62.7348 16.3884C62.9424 16.3704 63.1618 16.3307 63.3848 16.2821C63.6145 16.2424 63.8251 16.1765 64.0144 16.1068V12.7966ZM71.7672 8.51087C72.0577 8.50338 72.2925 8.49813 72.4576 8.49813C73.0747 8.49813 73.5883 8.56928 73.9816 8.71682C74.3895 8.85462 74.7109 9.06581 74.9406 9.35415C75.1783 9.64847 75.3485 9.99897 75.4395 10.4393C75.5371 10.87 75.5797 11.3792 75.5797 11.9626V17.9517C75.5797 18.1143 75.6127 18.2161 75.6846 18.2655C75.7448 18.3135 75.8467 18.3269 75.995 18.3269H77.7251C77.8843 18.3269 78.001 18.3135 78.0575 18.2655C78.1111 18.2161 78.1382 18.1143 78.1382 17.9517V12.0061C78.1382 10.9711 78.0303 10.0866 77.8088 9.35415C77.593 8.61272 77.2504 8.02631 76.7837 7.56573C76.3273 7.09915 75.7382 6.77562 75.0242 6.55993C74.3169 6.35473 73.4826 6.24988 72.5082 6.24988C72.3197 6.24988 72.0922 6.25512 71.8281 6.26635C71.5669 6.28882 71.299 6.30754 71.0195 6.31653C70.9655 6.32078 70.9117 6.32483 70.8582 6.32885C70.638 6.34541 70.4226 6.36161 70.2219 6.38993C69.9717 6.41539 69.7831 6.43486 69.632 6.45358C69.0274 6.55918 68.6275 6.75989 68.4463 7.06021C68.2445 7.36502 68.155 7.78142 68.155 8.31839V17.9517C68.155 18.1143 68.188 18.2161 68.2606 18.2655C68.3252 18.3135 68.4279 18.3269 68.5791 18.3269H70.2982C70.4545 18.3269 70.5653 18.3135 70.6328 18.2655C70.6944 18.2161 70.7165 18.1143 70.7165 17.9517V8.63144C71.1097 8.56104 71.4612 8.51761 71.7672 8.51087ZM84.7577 16.2839C85.2236 16.2839 85.6991 16.2247 86.1635 16.1086C86.6361 15.9851 87.0294 15.8518 87.3317 15.6982C87.4938 15.6233 87.6105 15.6024 87.6824 15.6331C87.7396 15.6593 87.799 15.7454 87.8497 15.8518L88.3978 17.1609C88.5482 17.396 88.4954 17.5855 88.2576 17.7233C87.6552 18.0678 87.0103 18.2992 86.3118 18.4101C85.6154 18.5224 84.9617 18.5718 84.3578 18.5718C82.7142 18.5718 81.4515 18.0678 80.5798 17.0493C79.7023 16.0345 79.2605 14.5149 79.2605 12.5034C79.2605 11.5575 79.389 10.697 79.6421 9.93007C79.8879 9.15868 80.2474 8.49813 80.7148 7.95217C81.1727 7.39947 81.7288 6.98082 82.3899 6.69099C83.043 6.39592 83.7752 6.24988 84.6 6.24988C85.2082 6.24988 85.7901 6.31578 86.3573 6.43486C86.912 6.56742 87.4527 6.77113 87.9546 7.03325C88.0874 7.11488 88.1659 7.18528 88.1894 7.26466C88.2231 7.33806 88.2011 7.4504 88.1366 7.60018L87.5767 8.93026C87.5202 9.0411 87.4527 9.12198 87.3962 9.15419C87.3265 9.18564 87.2025 9.15868 87.0294 9.08304C86.6742 8.94823 86.3118 8.83889 85.9258 8.74303C85.545 8.63144 85.14 8.59175 84.7056 8.59175C84.2067 8.59175 83.7796 8.69585 83.4245 8.91603C83.054 9.13471 82.7634 9.4223 82.5411 9.78403C82.3173 10.1428 82.1471 10.5599 82.0421 11.0332C81.9394 11.4998 81.8903 11.9933 81.8903 12.5034C81.8903 13.0328 81.9314 13.5219 82.0231 13.9742C82.1067 14.4371 82.2637 14.8407 82.4795 15.1852C82.6878 15.5252 82.9755 15.7971 83.3379 15.9926C83.707 16.191 84.1847 16.2839 84.7577 16.2839ZM99.5062 12.379C99.5062 14.3629 99.0447 15.8937 98.1459 16.9684C97.2419 18.0371 95.8925 18.5718 94.0986 18.5718C92.32 18.5718 91 18.0566 90.1202 17.0148C89.2508 15.9686 88.8164 14.4453 88.8164 12.4449C88.8164 11.4451 88.9455 10.5696 89.2133 9.80575C89.4701 9.03586 89.8333 8.40152 90.3066 7.86979C90.7777 7.34555 91.3478 6.93963 91.9986 6.66628C92.6546 6.38993 93.3729 6.24988 94.1705 6.24988C95.9168 6.24988 97.2419 6.7906 98.1459 7.88102C99.0447 8.9692 99.5062 10.4648 99.5062 12.379ZM96.8805 12.4437C96.8805 11.891 96.8431 11.378 96.7595 10.9024C96.6758 10.4186 96.5364 9.9895 96.3361 9.62777C96.1365 9.24582 95.8636 8.95973 95.5151 8.74779C95.1724 8.52985 94.7454 8.43624 94.2119 8.43624C93.7365 8.43624 93.3285 8.52985 92.9807 8.7418C92.6219 8.93876 92.3226 9.22335 92.101 9.56112C91.8611 9.90412 91.6879 10.3258 91.572 10.8043C91.4692 11.2859 91.4164 11.8139 91.4164 12.3636C91.4164 13.6218 91.613 14.6036 92.0063 15.3263C92.407 16.0415 93.1165 16.389 94.1334 16.389C94.639 16.389 95.0704 16.2842 95.4255 16.0715C95.7799 15.8505 96.0602 15.5615 96.2759 15.1967C96.4836 14.8387 96.6377 14.4074 96.736 13.9393C96.838 13.4652 96.8805 12.9597 96.8805 12.4437Z" fill="#585D61"/>
<path fill-rule="evenodd" clip-rule="evenodd" d="M25.3728 38.0001C18.86 38.0001 0 32.8164 0 26.4211C0 20.0323 18.86 14.8501 25.3728 14.8501C31.8781 14.8501 37.1556 20.0323 37.1556 26.4211C37.1556 32.8164 31.8781 38.0001 25.3728 38.0001" fill="#007A33"/>
<path fill-rule="evenodd" clip-rule="evenodd" d="M19.5596 19.2008C15.327 16.6706 5.13057 5.97353 7.70827 1.81515C10.2783 -2.34323 24.6388 1.60006 28.879 4.13811C33.1116 6.65464 34.4691 12.082 31.8914 16.2404C29.3213 20.4067 23.7999 21.7323 19.5596 19.2008" fill="#C3D600"/>
<path fill-rule="evenodd" clip-rule="evenodd" d="M15.9961 16.4046C17.3452 17.6405 18.606 18.6292 19.5624 19.2008C23.6696 21.653 28.9788 20.4862 31.6437 16.6243C29.8274 15.5004 27.677 14.8501 25.3725 14.8501C23.2201 14.8501 19.7192 15.4161 15.9961 16.4046Z" fill="#154734"/>
</svg>
