<svg width="212" height="41" viewBox="0 0 212 41" fill="none" xmlns="http://www.w3.org/2000/svg">
<g clip-path="url(#clip0_9201_12964)">
<rect width="211.887" height="40" transform="translate(0 0.0974121)" fill="white"/>
<path d="M36.6716 3.87891C35.2386 3.87891 34.0742 5.01835 34.0742 6.41654C34.0742 7.81472 35.2137 8.98402 36.6716 8.98402C38.1295 8.98402 39.3038 7.83462 39.3038 6.41654C39.3038 4.99845 38.1494 3.87891 36.6716 3.87891Z" fill="#FF0000"/>
<path d="M105.835 16.6367C105.835 12.482 103.631 10.4668 99.1032 10.4668C96.5556 10.4668 94.2419 11.1833 92.4108 12.3974L93.9582 15.3679C95.441 14.4723 96.7845 14.0593 98.1628 14.0593C99.5411 14.0593 101.198 14.5021 101.198 16.6317V16.8606L98.4713 16.9552C93.9732 17.1094 91.3857 19.1395 91.3857 22.5429C91.3857 25.9463 93.6895 28.0262 96.9785 28.0262C98.7997 28.0262 100.347 27.4739 101.691 26.3344C102.024 27.2301 102.462 27.6779 103.586 27.6779H106.224C105.965 26.8071 105.84 25.812 105.84 24.3342V16.6367H105.835ZM101.198 23.3988C100.452 24.0207 99.5311 24.3342 98.4365 24.3342C96.889 24.3342 95.9635 23.553 95.9635 22.2344C95.9635 21.4085 96.277 20.2989 99.0336 20.2093L101.198 20.1446V23.3938V23.3988Z" fill="#FF0000"/>
<path d="M34.3877 27.683H38.9605V26.0609V10.8501H34.3877V27.683Z" fill="#FF0000"/>
<path d="M24.4156 27.6829H26.0029L33.0088 10.845H28.4361L24.3659 21.7568L20.3653 10.845H15.7627L21.9078 25.8518C22.3755 27.0161 23.0821 27.6829 24.4106 27.6829H24.4156Z" fill="#FF0000"/>
<path d="M74.0339 27.6829V16.572C74.0339 12.069 71.2525 10.4668 68.6501 10.4668C66.6897 10.4668 64.9332 11.0888 62.9976 12.4869L62.9727 12.4024C62.5896 11.3624 61.7636 10.8499 60.4301 10.8499H58.6836V27.6878H63.2514V16.0844C64.7242 14.9848 66.0229 14.4524 67.227 14.4524C68.7695 14.4524 69.4612 15.4873 69.4612 17.8259V27.6878H74.0389L74.0339 27.6829Z" fill="#FF0000"/>
<path d="M90.4155 26.2998L89.2163 23.0456C88.256 23.6029 86.8677 24.2647 85.2356 24.2647C81.8421 24.2647 80.643 21.5031 80.643 19.1446C80.643 16.199 82.5885 14.0644 85.2705 14.0644C86.8279 14.0644 88.3405 14.5769 89.5298 15.4725L89.684 11.7059C88.2211 10.8899 86.6886 10.4719 84.7878 10.4719C82.3646 10.4719 80.1454 11.3676 78.5581 12.9996C76.9559 14.6267 76.0752 16.8857 76.0752 19.3586C76.0752 21.8315 76.8216 23.9263 78.175 25.4589C79.6478 27.1456 81.7974 28.0313 84.3748 28.0313C86.7931 28.0313 89.2063 27.1357 90.4254 26.2998H90.4155Z" fill="#FF0000"/>
<path d="M56.0478 27.683C55.7891 26.8123 55.6597 25.8171 55.6597 24.3393V16.6418C55.6597 12.4871 53.4554 10.4719 48.9225 10.4719C46.3798 10.4719 44.0661 11.1884 42.23 12.4025L43.7775 15.373C45.2603 14.4774 46.6037 14.0644 47.982 14.0644C49.3603 14.0644 51.0173 14.5073 51.0173 16.6369V16.8658L48.2905 16.9603C43.7924 17.1145 41.21 19.1446 41.21 22.5481C41.21 25.9515 43.5088 28.0313 46.7978 28.0313C48.6239 28.0313 50.1614 27.479 51.5049 26.3396C51.8432 27.2352 52.2761 27.683 53.4007 27.683H56.0379H56.0478ZM51.0222 23.3989C50.2808 24.0209 49.3504 24.3343 48.2656 24.3343C46.7132 24.3343 45.7927 23.5532 45.7927 22.2346C45.7927 21.4086 46.1062 20.299 48.8627 20.2095L51.0222 20.1448V23.3939V23.3989Z" fill="#FF0000"/>
<path d="M14.8378 27.683C14.5791 26.8123 14.4497 25.8171 14.4497 24.3393V16.6418C14.4497 12.4871 12.2454 10.4719 7.71249 10.4719C5.16986 10.4719 2.85611 11.1884 1.02004 12.4025L2.56751 15.373C4.0503 14.4774 5.39377 14.0644 6.77207 14.0644C8.15036 14.0644 9.80731 14.5073 9.80731 16.6369V16.8658L7.08057 16.9603C2.58244 17.1145 0 19.1446 0 22.5481C0 25.9515 2.29882 28.0313 5.58783 28.0313C7.41394 28.0313 8.95147 27.479 10.2949 26.3396C10.6333 27.2352 11.0662 27.683 12.1907 27.683H14.8279H14.8378ZM9.81228 23.3989C9.07089 24.0209 8.14041 24.3343 7.05569 24.3343C5.50324 24.3343 4.58271 23.5532 4.58271 22.2346C4.58271 21.4086 4.89619 20.299 7.65278 20.2095L9.81228 20.1448V23.3939V23.3989Z" fill="#FF0000"/>
<path d="M131.925 26.9167H135.085C136.398 26.9167 136.976 27.0262 137.344 27.1904C136.781 25.4489 135.01 24.0905 128.775 23.6228C129.771 24.7772 130.815 25.8818 131.92 26.9167H131.925Z" fill="#FF0000"/>
<path d="M128.78 23.6227C122.729 16.592 118.649 7.59088 117.017 0.0974121C117.017 0.0974121 113.693 3.0331 113.429 9.20302C113.136 15.9452 116.753 22.742 128.665 23.6128C128.705 23.6177 128.745 23.6178 128.78 23.6227Z" fill="#FF0000"/>
<path d="M131.925 26.9167C127.228 26.9167 119.122 26.9167 119.122 26.9167C119.291 27.3148 119.878 27.5934 121.217 27.6731C129.208 28.1458 130.342 34.4202 141.782 34.4202C142.787 34.4202 143.414 34.3605 144.046 34.241C139.523 32.8528 135.463 30.2356 131.93 26.9167H131.925Z" fill="#FF0000"/>
<path d="M172.619 20.6818L174.903 20.5923C175.037 20.5923 175.172 20.7266 175.172 20.861C175.53 29.7128 182.471 36.8182 191.293 37.266C191.472 37.266 191.562 37.4003 191.562 37.5347V39.8285C191.562 39.9629 191.428 40.0972 191.293 40.0972C180.904 39.6494 172.714 31.2901 172.355 20.9505C172.355 20.8162 172.49 20.6818 172.624 20.6818H172.619Z" fill="#FF0000"/>
<path d="M176.515 18.791C176.56 18.4328 176.605 18.3432 176.739 18.2536L179.471 16.4126C179.65 16.2783 179.874 16.2783 180.009 16.3678L182.875 17.4476C183.098 17.5371 183.233 17.7163 183.278 17.8954L185.562 27.0209C185.651 27.2448 185.696 27.5135 185.472 27.7872L183.86 29.9466C183.725 30.1258 183.546 30.1706 183.322 30.1706L180.188 30.1258C180.008 30.1258 179.919 30.081 179.695 29.8123C177.456 26.8915 176.471 23.7021 176.471 20.1494C176.471 19.7464 176.515 19.2936 176.515 18.801V18.791Z" fill="#FF0000"/>
<path d="M178.083 13.3524C178.128 13.2181 178.262 13.3077 178.307 13.3972L178.71 14.9696C178.799 15.1935 178.755 15.2383 178.575 15.3726L177.232 16.2732C177.142 16.3628 177.008 16.318 177.053 16.1389C177.098 15.6015 177.68 13.9346 178.083 13.3524Z" fill="#FF0000"/>
<path d="M179.337 11.1083C181.441 8.14271 184.576 5.93845 188.204 4.99804C188.472 4.90848 188.607 4.95326 188.741 5.04282L191.204 6.92863C191.383 7.06297 191.473 7.2421 191.473 7.42123V11.4217C191.473 11.6456 191.383 11.8248 191.159 11.9591L183.949 16.1387C183.815 16.2731 183.591 16.2731 183.412 16.2283L180.501 15.1486C180.322 15.1038 180.143 14.9694 180.098 14.7455L179.202 11.6009C179.158 11.4217 179.202 11.3322 179.337 11.1083Z" fill="#FF0000"/>
<path d="M181.57 31.5139H183.182C183.361 31.5139 183.451 31.5587 183.54 31.8274L183.943 33.3997C183.988 33.4893 183.943 33.6236 183.764 33.5341C183.137 33.1758 182.018 32.2752 181.435 31.7378C181.346 31.6035 181.435 31.5139 181.57 31.5139Z" fill="#FF0000"/>
<path d="M186.81 26.4785L184.615 17.8953C184.571 17.6266 184.66 17.2684 184.929 17.1291L191.825 13.0838C192.005 12.9942 192.273 12.9942 192.452 13.0838L199.349 17.1291C199.662 17.2634 199.752 17.6217 199.662 17.8953L197.468 26.4785C197.378 26.7919 197.155 26.9711 196.841 26.9711H187.482C187.168 26.9711 186.899 26.7919 186.81 26.4785Z" fill="#FF0000"/>
<path d="M184.884 30.7925L186.541 28.5883C186.676 28.4091 186.855 28.3196 187.034 28.3196H197.244C197.468 28.3196 197.647 28.4091 197.782 28.5883L199.394 30.7925C199.483 30.8821 199.573 31.0612 199.528 31.2851L198.722 34.3402C198.722 34.5194 198.633 34.5641 198.453 34.6537C196.528 35.5095 194.378 35.9573 192.139 35.9573C189.9 35.9573 187.795 35.5095 185.825 34.6537C185.691 34.5641 185.601 34.5194 185.556 34.3402L184.795 31.2851C184.705 31.0612 184.795 30.8821 184.884 30.7925Z" fill="#FF0000"/>
<path d="M190.661 4.5903C190.974 4.50073 191.557 4.50073 192.139 4.50073C192.766 4.50073 193.348 4.50073 193.617 4.5903C193.796 4.5903 193.796 4.72464 193.706 4.8142L192.363 5.80438C192.228 5.93872 192.094 5.93872 191.915 5.80438L190.616 4.8142C190.527 4.72464 190.527 4.5903 190.661 4.5903Z" fill="#FF0000"/>
<path d="M192.722 37.5347C192.722 37.4003 192.811 37.266 192.99 37.266C197.066 36.9973 200.738 35.425 203.604 32.8177C203.693 32.7281 203.872 32.7281 203.962 32.8177L205.529 34.39C205.619 34.4796 205.664 34.7035 205.529 34.793C202.216 37.8929 197.872 39.8285 192.99 40.0972C192.856 40.0972 192.722 39.9628 192.722 39.8285V37.5347Z" fill="#FF0000"/>
<path d="M192.855 7.42123C192.855 7.2421 192.945 7.06297 193.079 6.92863L195.587 5.04282C195.677 4.95326 195.856 4.90848 196.125 4.99804C199.707 5.94343 202.842 8.14271 204.947 11.1083C205.126 11.3322 205.126 11.4217 205.126 11.6009L204.23 14.7455C204.185 14.9694 204.006 15.1038 203.827 15.1486L200.916 16.2283C200.737 16.2731 200.513 16.2731 200.334 16.1387L193.169 11.9591C192.945 11.8248 192.855 11.6456 192.855 11.4217V7.42123Z" fill="#FF0000"/>
<path d="M201.052 17.8954C201.097 17.7163 201.231 17.5371 201.455 17.4476L204.276 16.3678C204.455 16.2783 204.679 16.2783 204.858 16.4126L207.545 18.2536C207.724 18.3432 207.724 18.4328 207.769 18.791C207.814 19.2836 207.859 19.7364 207.859 20.1395C207.859 23.6921 206.829 26.8816 204.59 29.8023C204.366 30.071 204.276 30.1158 204.142 30.1158L200.962 30.1606C200.738 30.1606 200.604 30.1158 200.47 29.9367L198.857 27.7772C198.634 27.5085 198.678 27.2398 198.723 27.011L201.052 17.8854V17.8954Z" fill="#FF0000"/>
<path d="M200.783 31.8274C200.828 31.5587 200.917 31.5139 201.141 31.5139H202.753C202.887 31.5139 202.932 31.6035 202.843 31.7378C202.305 32.2752 201.141 33.1758 200.514 33.5341C200.38 33.6236 200.29 33.4893 200.335 33.3997L200.783 31.8274Z" fill="#FF0000"/>
<path d="M204.767 31.648C207.365 28.7721 208.932 25.0403 209.111 20.9054C209.111 20.7711 209.246 20.6367 209.38 20.6367L211.619 20.6815C211.753 20.6815 211.888 20.8158 211.888 20.9502C211.709 25.8513 209.828 30.2548 206.738 33.5786C206.648 33.713 206.424 33.6682 206.335 33.5786L204.767 32.0063C204.678 31.9167 204.678 31.7376 204.767 31.648Z" fill="#FF0000"/>
<path d="M206.022 13.3972C206.067 13.3077 206.156 13.2181 206.246 13.3524C206.604 13.9346 207.231 15.6015 207.276 16.1389C207.321 16.318 207.186 16.3628 207.097 16.2732L205.753 15.3726C205.529 15.2383 205.529 15.1935 205.574 14.9696L206.022 13.3972Z" fill="#FF0000"/>
<path d="M172.535 19.2881L172.63 18.0541L173.097 18.089L173.043 18.8105L173.386 18.8353L173.446 18.0442L173.913 18.079L173.854 18.8702L175.093 18.9647L175.053 19.4772L172.535 19.2832V19.2881Z" fill="#FF0000"/>
<path d="M172.704 17.4622L172.913 16.2432L173.376 16.3228L173.251 17.0343L173.595 17.094L173.729 16.3078L174.192 16.3875L174.058 17.1736L174.819 17.303L174.943 16.5915L175.406 16.6711L175.197 17.8901L172.709 17.4622H172.704Z" fill="#FF0000"/>
<path d="M175.486 16.2679L173.058 15.5812L173.137 15.3026C173.406 14.3572 174.103 14.1731 174.72 14.3472C175.332 14.5214 175.834 15.0438 175.565 15.9892L175.486 16.2679ZM174.575 14.8448C174.157 14.7254 173.829 14.8249 173.66 15.213L175.162 15.6359C175.212 15.1981 174.978 14.9543 174.575 14.8398V14.8448Z" fill="#FF0000"/>
<path d="M173.685 13.4963L174.142 12.3469L174.575 12.5211L174.307 13.1928L174.63 13.3222L174.924 12.5808L175.357 12.7549L175.063 13.4963L175.779 13.7849L176.048 13.1132L176.481 13.2873L176.023 14.4367L173.68 13.5013L173.685 13.4963Z" fill="#FF0000"/>
<path d="M174.421 11.7299L174.54 11.501C175.038 10.5557 175.406 10.4611 175.744 10.6402C176.078 10.8144 176.247 11.1478 175.844 11.8643L177.411 11.4712L177.108 12.0434L176.317 12.1728L176.884 12.4713L176.655 12.9042L174.421 11.7299ZM175.516 11.108C175.406 11.0532 175.267 11.0781 175.068 11.4911L175.466 11.7001C175.72 11.307 175.645 11.1776 175.521 11.1129L175.516 11.108Z" fill="#FF0000"/>
<path d="M175.805 9.32676L176.048 8.96851L178.566 9.75965L178.263 10.2075L177.934 10.0831L177.531 10.6752L177.765 10.9389L177.462 11.3867L175.81 9.33173L175.805 9.32676ZM177.477 9.91887L176.546 9.57057L177.208 10.3169L177.477 9.91887Z" fill="#FF0000"/>
<path d="M177.685 8.86394C177.013 8.29671 177.033 7.62 177.526 7.03784L177.879 7.33639C177.486 7.7842 177.71 8.20217 178.023 8.46588C178.332 8.72959 178.779 8.87887 179.158 8.41612L179.511 8.71467C179.013 9.29683 178.362 9.43117 177.69 8.86394H177.685Z" fill="#FF0000"/>
<path d="M177.964 6.62992L178.322 6.26172L180.123 8.02811L179.765 8.39631L177.964 6.62992Z" fill="#FF0000"/>
<path d="M178.943 4.89338L179.222 4.65454L179.371 4.99787L179.122 5.21182L178.943 4.8884V4.89338ZM179.496 6.8588C178.879 6.13731 179.048 5.53027 179.386 5.24168C179.725 4.95309 180.347 4.88343 180.964 5.60491C181.576 6.32142 181.411 6.92846 181.073 7.21705C180.735 7.50564 180.108 7.58028 179.496 6.86377V6.8588ZM180.769 6.8588C180.959 6.6946 180.869 6.29156 180.57 5.94326C180.247 5.5651 179.884 5.43573 179.69 5.59993C179.496 5.76413 179.565 6.14726 179.889 6.52542C180.187 6.8787 180.575 7.02797 180.765 6.86377L180.769 6.8588Z" fill="#FF0000"/>
<path d="M180.881 4.11741L182.394 4.71947L181.657 3.60491L182.085 3.32129L183.478 5.42603L183.051 5.70965L182.827 5.3713L181.622 4.90855L182.429 6.12263L182.001 6.40625L180.607 4.30151L180.881 4.11741Z" fill="#FF0000"/>
<path d="M183.647 3.90319C183.269 3.10707 183.562 2.50003 184.254 2.17163L184.453 2.58959C183.911 2.8334 183.945 3.31108 184.12 3.67928C184.294 4.04749 184.642 4.36593 185.174 4.10222L185.373 4.52018C184.682 4.84858 184.03 4.69931 183.652 3.90319H183.647Z" fill="#FF0000"/>
<path d="M185.184 3.17187C184.871 2.27126 185.249 1.76871 185.667 1.62441C186.085 1.48012 186.692 1.63436 187.005 2.53497C187.319 3.42563 186.941 3.92818 186.523 4.07745C186.105 4.22175 185.493 4.0675 185.179 3.17187H185.184ZM186.368 3.63461C186.602 3.55002 186.667 3.14201 186.513 2.70912C186.348 2.2414 186.055 1.98764 185.821 2.06725C185.582 2.15184 185.508 2.53 185.672 3.00269C185.826 3.44056 186.129 3.7192 186.368 3.63461Z" fill="#FF0000"/>
<path d="M187.119 1.20648L187.622 1.09204L188.085 3.09727L188.826 2.92311L188.93 3.38088L187.686 3.66948L187.114 1.21146L187.119 1.20648Z" fill="#FF0000"/>
<path d="M188.974 2.08225C188.86 1.13686 189.337 0.728851 189.78 0.674118C190.223 0.619385 190.78 0.907978 190.895 1.85337C191.009 2.79378 190.532 3.2018 190.094 3.25653C189.651 3.31126 189.089 3.02267 188.979 2.08723L188.974 2.08225ZM190.034 2.78383C190.283 2.75398 190.432 2.37085 190.377 1.91308C190.318 1.42048 190.084 1.10701 189.835 1.13686C189.586 1.16672 189.432 1.52497 189.492 2.01757C189.546 2.47534 189.785 2.81369 190.034 2.78383Z" fill="#FF0000"/>
<path d="M191.723 0.554536L192.424 2.00745L193.171 0.579415H193.554L193.514 3.11207L193.002 3.10212L193.021 1.76364L192.549 2.65928H192.275L191.832 1.74374L191.812 3.08221L191.3 3.07226L191.34 0.549561H191.723V0.554536Z" fill="#FF0000"/>
<path d="M194.261 0.65918L194.534 0.698986C195.52 0.843282 195.729 1.19656 195.679 1.53989C195.654 1.70409 195.579 1.85833 195.425 1.96282C195.639 2.132 195.704 2.37084 195.664 2.61962C195.594 3.08734 195.221 3.35106 194.166 3.19681L193.893 3.157L194.266 0.65918H194.261ZM195.151 2.52508C195.181 2.3161 195.042 2.08224 194.574 2.05239L194.465 2.77885C194.933 2.85846 195.117 2.72411 195.146 2.52508H195.151ZM195.161 1.49013C195.176 1.38564 195.112 1.23637 194.704 1.18661L194.629 1.67423C195.032 1.77872 195.137 1.63443 195.156 1.49013H195.161Z" fill="#FF0000"/>
<path d="M196.469 1.03711L196.966 1.15653L196.384 3.61454L195.887 3.49513L196.469 1.03711Z" fill="#FF0000"/>
<path d="M198.146 1.49487L198.559 1.62922L198.489 4.26636L197.971 4.09719L198.001 3.74391L197.325 3.52L197.136 3.81855L196.623 3.64937L198.146 1.49487ZM198.041 3.26624L198.121 2.27606L197.588 3.11697L198.046 3.26624H198.041Z" fill="#FF0000"/>
<path d="M200.071 2.21647L200.339 3.82363L200.912 2.6195L201.374 2.83844L200.29 5.11733L199.827 4.89839L200.001 4.53019L199.777 3.26138L199.15 4.57497L198.688 4.35604L199.772 2.07715L200.071 2.21647Z" fill="#FF0000"/>
<path d="M202.49 3.5L202.854 3.73386L202.147 6.27646L201.689 5.98787L201.804 5.6545L201.202 5.27136L200.948 5.51518L200.495 5.22658L202.495 3.50498L202.49 3.5ZM201.953 5.19175L202.271 4.24636L201.55 4.93301L201.953 5.19175Z" fill="#FF0000"/>
<path d="M202.75 6.74443L204.397 4.83374L204.616 5.02282C205.362 5.66469 205.228 6.37622 204.815 6.85887C204.402 7.34151 203.71 7.57537 202.969 6.9335L202.75 6.74443ZM204.422 6.51554C204.705 6.18714 204.755 5.84879 204.477 5.52537L203.457 6.7096C203.83 6.93848 204.153 6.82901 204.422 6.51554Z" fill="#FF0000"/>
<path d="M206.023 6.28174L206.869 7.18235L206.525 7.50577L206.028 6.97834L205.774 7.21718L206.321 7.79436L205.978 8.11779L205.431 7.5406L204.868 8.06803L205.366 8.59546L205.023 8.91888L204.177 8.01827L206.013 6.28671L206.023 6.28174Z" fill="#FF0000"/>
<path d="M207.678 8.16235L208.404 9.16248L208.026 9.43614L207.603 8.85398L207.324 9.05799L207.792 9.69986L207.414 9.97352L206.946 9.33165L205.941 10.0631L205.638 9.6501L207.678 8.16235Z" fill="#FF0000"/>
<path d="M208.093 11.601L209.426 10.8397L209.68 11.2875L208.366 12.0339C207.744 12.3871 207.232 12.1483 207.003 11.7453C206.774 11.3422 206.824 10.7849 207.451 10.4317L208.764 9.6853L209.018 10.1331L207.685 10.8944C207.351 11.0835 207.307 11.3422 207.406 11.5214C207.506 11.7005 207.754 11.795 208.088 11.6059L208.093 11.601ZM209.327 10.2177L209.491 10.5063L209.859 10.4217L209.675 10.1033L209.327 10.2177Z" fill="#FF0000"/>
<path d="M209.663 12.3967L209.469 11.9439L209.902 11.7598L210.494 13.1331L210.061 13.3172L209.867 12.8644L207.981 13.6754L207.777 13.2027L209.663 12.3917V12.3967Z" fill="#FF0000"/>
<path d="M210.674 13.6108L210.754 13.8746C211.047 14.8249 210.823 15.1682 210.49 15.2678C210.331 15.3175 210.157 15.3175 209.997 15.218C209.938 15.4867 209.754 15.6459 209.505 15.7206C209.052 15.8599 208.654 15.6409 208.335 14.6209L208.256 14.3572L210.669 13.6108H210.674ZM209.38 15.218C209.584 15.1533 209.734 14.9294 209.555 14.4965L208.853 14.7155C208.982 15.1682 209.181 15.2827 209.38 15.218ZM210.316 14.7801C210.415 14.7503 210.52 14.6259 210.395 14.2378L209.923 14.3821C210.002 14.7901 210.182 14.8199 210.316 14.7801Z" fill="#FF0000"/>
<path d="M210.053 15.9394C210.989 15.7702 211.426 16.223 211.506 16.6609C211.586 17.0987 211.337 17.6709 210.396 17.8451C209.466 18.0143 209.028 17.5665 208.948 17.1286C208.869 16.6907 209.118 16.1135 210.048 15.9444L210.053 15.9394ZM209.416 17.039C209.461 17.2828 209.854 17.4122 210.307 17.3276C210.794 17.2381 211.093 16.9893 211.048 16.7405C211.003 16.4917 210.64 16.3623 210.148 16.4519C209.695 16.5365 209.371 16.7902 209.416 17.039Z" fill="#FF0000"/>
<path d="M211.695 18.1536L211.729 18.6661L209.679 18.8153L209.734 19.5766L209.266 19.6115L209.172 18.3377L211.69 18.1536H211.695Z" fill="#FF0000"/>
<path d="M157.221 36.0622C157.131 36.0622 157.057 35.9876 157.057 35.898V4.28212C157.057 4.19256 157.131 4.11792 157.221 4.11792C157.31 4.11792 157.385 4.19256 157.385 4.28212V35.898C157.385 35.9876 157.31 36.0622 157.221 36.0622Z" fill="#FF0000"/>
</g>
<defs>
<clipPath id="clip0_9201_12964">
<rect width="211.887" height="40" fill="white" transform="translate(0 0.0974121)"/>
</clipPath>
</defs>
</svg>
